<?xml version="1.0" encoding="UTF-8" standalone="no"?>
<!-- Created with Inkscape (http://www.inkscape.org/) -->

<svg
   width="9.4195156mm"
   height="9.4195194mm"
   viewBox="0 0 9.4195156 9.4195194"
   version="1.1"
   id="svg1"
   xmlns="http://www.w3.org/2000/svg"
   xmlns:svg="http://www.w3.org/2000/svg">
  <defs
     id="defs1">
    <clipPath
       clipPathUnits="userSpaceOnUse"
       id="clipPath8019">
      <path
         d="M 0,1440 H 251.455 V 0 H 0 Z"
         transform="translate(-65.491601,-33.485176)"
         id="path8019" />
    </clipPath>
    <clipPath
       clipPathUnits="userSpaceOnUse"
       id="clipPath8043">
      <path
         d="M 0,1440 H 251.455 V 0 H 0 Z"
         transform="translate(-62.045702,-46.944826)"
         id="path8043" />
    </clipPath>
  </defs>
  <g
     id="layer1"
     transform="translate(-106.09791,-25.929159)">
    <path
       id="path8018"
       d="M 0,0 C 7.374,0 13.351,5.977 13.351,13.35 13.351,20.724 7.374,26.701 0,26.701 -7.374,26.701 -13.35,20.724 -13.35,13.35 -13.35,5.977 -7.374,0 0,0"
       style="fill:#cd9968;fill-opacity:1;fill-rule:nonzero;stroke:none"
       transform="matrix(0.35277776,0,0,-0.35277776,110.8075,35.348678)"
       clip-path="url(#clipPath8019)" />
    <path
       id="path8042"
       d="M 0,0 C 0,0 -0.115,-0.045 -0.246,-0.106 -0.109,-0.105 -0.015,-0.078 0,0 m -0.484,-4.017 0.029,-0.142 c 0,0 0.855,0.598 0.569,1.14 -0.284,0.541 -0.598,-0.485 -0.598,-0.998 m 3.247,7.321 c 0,0 -0.228,-1.88 -1.053,-1.453 C 0.884,2.278 1.681,2.934 1.681,2.934 L 0.855,2.535 c 0,0 -0.114,-1.367 -0.684,-1.281 0,0 0.028,-0.599 -0.285,-0.599 0,0 0.655,-0.428 0.371,-0.798 -0.285,-0.37 0.085,-1.139 0.085,-1.139 -0.057,0.285 -0.171,0.968 0.314,1.339 0.484,0.37 0.398,0.512 0.598,0.94 0.199,0.427 0.911,0.228 1.224,0.513 0.313,0.284 0.285,1.794 0.285,1.794 M 6.437,3.902 C 5.896,4.557 4.957,4.757 5.07,4.387 5.185,4.017 5.527,3.361 5.527,3.361 5.554,4.158 6.437,3.902 6.437,3.902 M 4.843,3.959 c 0,-0.176 0.061,-0.383 0.149,-0.59 -0.034,0.306 -0.149,0.59 -0.149,0.59 M 6.951,0.94 c 0,0 -1.168,0.484 -1.397,1.453 0,0 -0.354,0.482 -0.562,0.976 C 5.013,3.172 5.001,2.965 4.9,2.82 4.644,2.449 4.444,1.51 4.444,1.51 c 0,0 0.598,0.484 0.798,-0.171 0.199,-0.655 0.171,-0.484 0.427,-0.94 0.256,-0.457 0.399,-0.229 0.57,-0.77 0.17,-0.541 0.284,-0.883 0.626,-1.111 0.343,-0.228 0.627,-0.057 0.399,0.2 -0.228,0.257 -0.598,0.171 -0.456,0.57 0.143,0.398 1.168,0.142 1.226,0.455 0,0 -1.795,-0.057 -1.083,1.197 M 7.806,3.902 C 7.919,4.415 7.464,4.899 7.292,4.672 7.122,4.443 6.979,4.017 7.292,3.588 7.606,3.162 7.549,1.994 7.549,1.994 7.862,2.221 7.691,3.389 7.806,3.902 M 9.03,2.82 C 8.774,1.709 8.632,1.395 8.034,1.339 7.435,1.282 7.862,0.855 8.204,0.598 8.546,0.342 8.802,-0.114 8.546,-0.598 8.29,-1.082 9.457,-2.279 7.549,-3.561 l -0.028,0.114 c 0,0 -0.285,-1.88 -1.625,-1.595 0,0 -0.854,-0.399 -1.31,0.398 -0.066,0.116 -0.117,0.224 -0.16,0.324 1.229,-1.02 2.183,1.158 2.183,1.158 -1.443,-0.628 -2.068,-0.501 -2.331,-0.334 0.009,0.07 0.024,0.106 0.024,0.106 0,0 -0.308,0.235 -0.389,0.735 0.634,0.002 2.335,0.124 2.496,1.373 0,0 -0.74,-1.567 -2.392,-0.741 l -0.116,-0.21 c 0.001,0.004 0.001,0.007 0.002,0.011 0.032,0.298 0.052,0.564 0.051,0.787 C 4.2,-1.07 5.205,0.47 4.644,0.598 4.017,0.74 4.017,-0.199 3.675,0.028 3.333,0.256 2.906,1.225 2.535,0.911 2.165,0.598 2.45,0.285 2.337,0.028 2.222,-0.228 1.908,-0.484 2.251,-0.741 2.393,-0.848 2.636,-1.105 2.899,-1.323 2.77,-1.461 2.703,-1.765 2.791,-1.966 2.806,-1.996 2.825,-2.036 2.848,-2.082 2.193,-2.449 0.801,-3.126 0.455,-2.478 c 0,0 0.032,-0.22 0.196,-0.387 -0.153,-0.429 -0.488,-1.549 0.346,-1.294 0,0 -0.171,0.256 0.229,0.512 0.273,0.176 0.238,0.459 0.162,0.629 0.351,0.082 0.832,0.33 1.491,0.872 0.177,-0.365 0.486,-1.037 0.226,-1.415 0,0 -0.342,-2.62 -2.564,-1.452 0,0 -1.366,-0.456 -1.396,1.652 0,0 -0.54,0.227 -0.683,0.683 -0.142,0.456 -0.599,1.282 -0.057,1.766 0.167,0.151 0.169,0.309 0.117,0.482 0.269,-0.188 0.709,-0.368 0.709,-0.368 0,0 0.626,0.314 0.228,0.371 -0.26,0.036 0.048,0.207 0.295,0.321 -0.366,-0.006 -1.038,0.166 -1.349,0.02 -0.004,-0.001 -0.008,-0.003 -0.011,-0.005 -0.117,0.313 -0.188,0.675 0.268,1.116 0.153,0.149 0.225,0.268 0.24,0.371 0.023,-0.03 0.046,-0.059 0.073,-0.087 0,0 -0.598,1.824 1.253,3.078 0,0 -0.313,0.142 -0.256,0.398 0,0 -0.343,-0.398 -0.57,-0.37 0,0 0.285,-0.142 -0.029,-0.398 C -0.894,3.798 -1.552,2.589 -1.268,1.724 -1.609,2.01 -2.331,2.265 -2.278,3.076 -2.193,4.387 -1.794,4.615 -1.395,4.7 -0.997,4.785 -1.623,5.726 -0.427,6.096 0.769,6.466 1.795,6.922 1.966,5.355 2.136,3.789 2.109,3.533 2.621,4.7 3.133,5.867 2.906,5.668 3.133,5.867 3.361,6.068 3.077,6.238 3.589,6.238 4.102,6.238 3.845,5.44 4.102,5.127 4.359,4.814 4.786,3.731 4.929,4.215 5.07,4.7 4.387,6.124 5.498,6.266 6.609,6.409 7.036,6.979 7.89,5.582 8.745,4.187 9.286,3.931 9.03,2.82 m 1.271,-2.992 c 0,4.76 -0.653,8.617 -6.855,8.617 -6.202,0 -6.855,-3.857 -6.855,-8.617 0,-4.759 6.855,-8.617 6.855,-8.617 0,0 6.855,3.858 6.855,8.617"
       style="fill:#ffffff;fill-opacity:1;fill-rule:nonzero;stroke:none"
       transform="matrix(0.35277776,0,0,-0.35277776,109.59186,30.600413)"
       clip-path="url(#clipPath8043)" />
  </g>
</svg>
