<?xml version="1.0" encoding="UTF-8" standalone="no"?>
<!-- Created with Inkscape (http://www.inkscape.org/) -->

<svg
   width="9.4195194mm"
   height="9.4195242mm"
   viewBox="0 0 9.4195194 9.4195242"
   version="1.1"
   id="svg1"
   xmlns="http://www.w3.org/2000/svg"
   xmlns:svg="http://www.w3.org/2000/svg">
  <defs
     id="defs1">
    <clipPath
       clipPathUnits="userSpaceOnUse"
       id="clipPath8003">
      <path
         d="M 0,1440 H 251.455 V 0 H 0 Z"
         transform="translate(-128.01951,-33.485176)"
         id="path8003" />
    </clipPath>
    <clipPath
       clipPathUnits="userSpaceOnUse"
       id="clipPath8017">
      <path
         d="M 0,1440 H 251.455 V 0 H 0 Z"
         transform="translate(-127.5402,-43.320826)"
         id="path8017" />
    </clipPath>
  </defs>
  <g
     id="layer1"
     transform="translate(-57.414582,-118.53332)">
    <path
       id="path8002"
       d="M 0,0 C 7.374,0 13.35,5.977 13.35,13.35 13.35,20.724 7.374,26.701 0,26.701 -7.374,26.701 -13.351,20.724 -13.351,13.35 -13.351,5.977 -7.374,0 0,0"
       style="fill:#cb9367;fill-opacity:1;fill-rule:nonzero;stroke:none"
       transform="matrix(0.35277776,0,0,-0.35277776,62.124518,127.95284)"
       clip-path="url(#clipPath8003)" />
    <path
       id="path8016"
       d="M 0,0 C -0.124,-1.421 1.025,-1.957 1.385,-1.989 1.745,-2.02 2.97,-1.692 3.094,-0.271 3.219,1.15 2.227,3.486 1.867,3.516 1.507,3.548 0.124,1.421 0,0 m -2.734,3.774 c -0.321,0.375 -0.6,0.609 -0.725,0.585 -0.354,-0.069 -1.086,-2.547 -0.808,-3.981 0.279,-1.434 1.533,-1.642 1.888,-1.574 0.355,0.069 1.44,0.732 1.162,2.166 -0.041,0.208 -0.109,0.427 -0.197,0.651 -0.498,0.159 -1.476,0.843 -1.32,2.153 m 0.239,0.156 c -0.238,-1.345 0.84,-1.987 1.239,-2.058 0.397,-0.07 1.63,0.165 1.867,1.51 C 0.829,4.615 0.14,6.977 -0.342,7.062 -0.822,7.147 -2.278,5.163 -2.495,3.93 M 2.402,8.179 C 1.64,9.497 0.308,9.262 -0.026,9.07 -0.301,8.91 -0.942,8.175 -0.728,7.183 c 0.138,0.1 0.273,0.165 0.391,0.165 0.018,0 0.037,-10e-4 0.054,-0.004 C 0.156,7.267 0.502,6.111 0.598,5.758 0.651,5.564 0.695,5.371 0.734,5.18 1.651,4.405 2.705,3.838 2.922,3.964 3.256,4.157 3.162,6.862 2.402,8.179 M 6.211,2.617 c 0,1.422 -1.191,3.655 -1.553,3.655 -0.361,0 -1.553,-2.233 -1.553,-3.655 0,-1.422 1.192,-1.855 1.553,-1.855 0.362,0 1.553,0.433 1.553,1.855"
       style="fill:#ffffff;fill-opacity:1;fill-rule:nonzero;stroke:none"
       transform="matrix(0.35277776,0,0,-0.35277776,61.955431,124.48304)"
       clip-path="url(#clipPath8017)" />
  </g>
</svg>
