<?xml version="1.0" encoding="UTF-8" standalone="no"?>
<!-- Created with Inkscape (http://www.inkscape.org/) -->

<svg
   width="71.075279mm"
   height="2.5664213mm"
   viewBox="0 0 71.075279 2.5664213"
   version="1.1"
   id="svg1"
   xmlns="http://www.w3.org/2000/svg"
   xmlns:svg="http://www.w3.org/2000/svg">
  <defs
     id="defs1">
    <clipPath
       clipPathUnits="userSpaceOnUse"
       id="clipPath126">
      <path
         d="M 0,1440 H 251.455 V 0 H 0 Z"
         transform="translate(-92.4313,-906.11792)"
         id="path126" />
    </clipPath>
    <clipPath
       clipPathUnits="userSpaceOnUse"
       id="clipPath128">
      <path
         d="M 0,1440 H 251.455 V 0 H 0 Z"
         transform="translate(-81.082405,-906.18863)"
         id="path128" />
    </clipPath>
    <clipPath
       clipPathUnits="userSpaceOnUse"
       id="clipPath130">
      <path
         d="M 0,1440 H 251.455 V 0 H 0 Z"
         transform="translate(-86.1259,-905.60142)"
         id="path130" />
    </clipPath>
    <clipPath
       clipPathUnits="userSpaceOnUse"
       id="clipPath134">
      <path
         d="M 0,1440 H 251.455 V 0 H 0 Z"
         transform="translate(-75.758702,-905.97372)"
         id="path134" />
    </clipPath>
    <clipPath
       clipPathUnits="userSpaceOnUse"
       id="clipPath138">
      <path
         d="M 0,1440 H 251.455 V 0 H 0 Z"
         transform="translate(-124.28271,-906.86762)"
         id="path138" />
    </clipPath>
    <clipPath
       clipPathUnits="userSpaceOnUse"
       id="clipPath140">
      <path
         d="M 0,1440 H 251.455 V 0 H 0 Z"
         transform="translate(-112.93371,-906.93822)"
         id="path140" />
    </clipPath>
    <clipPath
       clipPathUnits="userSpaceOnUse"
       id="clipPath142">
      <path
         d="M 0,1440 H 251.455 V 0 H 0 Z"
         transform="translate(-117.97731,-906.35102)"
         id="path142" />
    </clipPath>
    <clipPath
       clipPathUnits="userSpaceOnUse"
       id="clipPath144">
      <path
         d="M 0,1440 H 251.455 V 0 H 0 Z"
         transform="translate(-100.7566,-905.99183)"
         id="path144" />
    </clipPath>
    <clipPath
       clipPathUnits="userSpaceOnUse"
       id="clipPath146">
      <path
         d="M 0,1440 H 251.455 V 0 H 0 Z"
         transform="translate(-107.61,-906.72332)"
         id="path146" />
    </clipPath>
    <clipPath
       clipPathUnits="userSpaceOnUse"
       id="clipPath148">
      <path
         d="M 0,1440 H 251.455 V 0 H 0 Z"
         transform="translate(-95.158,-905.50092)"
         id="path148" />
    </clipPath>
    <clipPath
       clipPathUnits="userSpaceOnUse"
       id="clipPath150">
      <path
         d="M 0,1440 H 251.455 V 0 H 0 Z"
         transform="translate(-156.45921,-907.68413)"
         id="path150" />
    </clipPath>
    <clipPath
       clipPathUnits="userSpaceOnUse"
       id="clipPath152">
      <path
         d="M 0,1440 H 251.455 V 0 H 0 Z"
         transform="translate(-145.1103,-907.75482)"
         id="path152" />
    </clipPath>
    <clipPath
       clipPathUnits="userSpaceOnUse"
       id="clipPath154">
      <path
         d="M 0,1440 H 251.455 V 0 H 0 Z"
         transform="translate(-150.15381,-907.16772)"
         id="path154" />
    </clipPath>
    <clipPath
       clipPathUnits="userSpaceOnUse"
       id="clipPath156">
      <path
         d="M 0,1440 H 251.455 V 0 H 0 Z"
         transform="translate(-132.93321,-906.80832)"
         id="path156" />
    </clipPath>
    <clipPath
       clipPathUnits="userSpaceOnUse"
       id="clipPath158">
      <path
         d="M 0,1440 H 251.455 V 0 H 0 Z"
         transform="translate(-139.7865,-907.53992)"
         id="path158" />
    </clipPath>
    <clipPath
       clipPathUnits="userSpaceOnUse"
       id="clipPath160">
      <path
         d="M 0,1440 H 251.455 V 0 H 0 Z"
         transform="translate(-127.3345,-906.31752)"
         id="path160" />
    </clipPath>
    <clipPath
       clipPathUnits="userSpaceOnUse"
       id="clipPath162">
      <path
         d="M 0,1440 H 251.455 V 0 H 0 Z"
         transform="translate(-161.458,-908.11602)"
         id="path162" />
    </clipPath>
    <clipPath
       clipPathUnits="userSpaceOnUse"
       id="clipPath164">
      <path
         d="M 0,1440 H 251.455 V 0 H 0 Z"
         transform="translate(-194.3494,-908.81102)"
         id="path164" />
    </clipPath>
    <clipPath
       clipPathUnits="userSpaceOnUse"
       id="clipPath166">
      <path
         d="M 0,1440 H 251.455 V 0 H 0 Z"
         transform="translate(-183.0004,-908.88173)"
         id="path166" />
    </clipPath>
    <clipPath
       clipPathUnits="userSpaceOnUse"
       id="clipPath168">
      <path
         d="M 0,1440 H 251.455 V 0 H 0 Z"
         transform="translate(-188.044,-908.29442)"
         id="path168" />
    </clipPath>
    <clipPath
       clipPathUnits="userSpaceOnUse"
       id="clipPath170">
      <path
         d="M 0,1440 H 251.455 V 0 H 0 Z"
         transform="translate(-170.8233,-907.93523)"
         id="path170" />
    </clipPath>
    <clipPath
       clipPathUnits="userSpaceOnUse"
       id="clipPath172">
      <path
         d="M 0,1440 H 251.455 V 0 H 0 Z"
         transform="translate(-177.67671,-908.66672)"
         id="path172" />
    </clipPath>
    <clipPath
       clipPathUnits="userSpaceOnUse"
       id="clipPath174">
      <path
         d="M 0,1440 H 251.455 V 0 H 0 Z"
         transform="translate(-165.2247,-907.44443)"
         id="path174" />
    </clipPath>
    <clipPath
       clipPathUnits="userSpaceOnUse"
       id="clipPath176">
      <path
         d="M 0,1440 H 251.455 V 0 H 0 Z"
         transform="translate(-226.1122,-907.84823)"
         id="path176" />
    </clipPath>
    <clipPath
       clipPathUnits="userSpaceOnUse"
       id="clipPath178">
      <path
         d="M 0,1440 H 251.455 V 0 H 0 Z"
         transform="translate(-214.85181,-909.63122)"
         id="path178" />
    </clipPath>
    <clipPath
       clipPathUnits="userSpaceOnUse"
       id="clipPath180">
      <path
         d="M 0,1440 H 251.455 V 0 H 0 Z"
         transform="translate(-219.89541,-909.04412)"
         id="path180" />
    </clipPath>
    <clipPath
       clipPathUnits="userSpaceOnUse"
       id="clipPath182">
      <path
         d="M 0,1440 H 251.455 V 0 H 0 Z"
         transform="translate(-202.6747,-908.68482)"
         id="path182" />
    </clipPath>
    <clipPath
       clipPathUnits="userSpaceOnUse"
       id="clipPath184">
      <path
         d="M 0,1440 H 251.455 V 0 H 0 Z"
         transform="translate(-209.52811,-909.41633)"
         id="path184" />
    </clipPath>
    <clipPath
       clipPathUnits="userSpaceOnUse"
       id="clipPath186">
      <path
         d="M 0,1440 H 251.455 V 0 H 0 Z"
         transform="translate(-197.0761,-908.19402)"
         id="path186" />
    </clipPath>
    <clipPath
       clipPathUnits="userSpaceOnUse"
       id="clipPath114">
      <path
         d="M 0,1440 H 251.455 V 0 H 0 Z"
         transform="translate(-43.192201,-905.06172)"
         id="path114" />
    </clipPath>
    <clipPath
       clipPathUnits="userSpaceOnUse"
       id="clipPath118">
      <path
         d="M 0,1440 H 251.455 V 0 H 0 Z"
         transform="translate(-31.015101,-904.11533)"
         id="path118" />
    </clipPath>
    <clipPath
       clipPathUnits="userSpaceOnUse"
       id="clipPath120">
      <path
         d="M 0,1440 H 251.455 V 0 H 0 Z"
         transform="translate(-37.868501,-904.84682)"
         id="path120" />
    </clipPath>
    <clipPath
       clipPathUnits="userSpaceOnUse"
       id="clipPath122">
      <path
         d="M 0,1440 H 251.455 V 0 H 0 Z"
         transform="translate(-25.416501,-903.62453)"
         id="path122" />
    </clipPath>
    <clipPath
       clipPathUnits="userSpaceOnUse"
       id="clipPath112">
      <path
         d="M 0,1440 H 251.455 V 0 H 0 Z"
         transform="translate(-54.541102,-904.99103)"
         id="path112" />
    </clipPath>
    <clipPath
       clipPathUnits="userSpaceOnUse"
       id="clipPath116">
      <path
         d="M 0,1440 H 251.455 V 0 H 0 Z"
         transform="translate(-48.235701,-904.47452)"
         id="path116" />
    </clipPath>
    <clipPath
       clipPathUnits="userSpaceOnUse"
       id="clipPath124">
      <path
         d="M 0,1440 H 251.455 V 0 H 0 Z"
         transform="translate(-59.540002,-905.42303)"
         id="path124" />
    </clipPath>
    <clipPath
       clipPathUnits="userSpaceOnUse"
       id="clipPath132">
      <path
         d="M 0,1440 H 251.455 V 0 H 0 Z"
         transform="translate(-68.905202,-905.24222)"
         id="path132" />
    </clipPath>
    <clipPath
       clipPathUnits="userSpaceOnUse"
       id="clipPath136">
      <path
         d="M 0,1440 H 251.455 V 0 H 0 Z"
         transform="translate(-63.306701,-904.75133)"
         id="path136" />
    </clipPath>
  </defs>
  <g
     id="layer1"
     transform="translate(-38.177121,-93.538349)">
    <path
       id="path111"
       d="M 0,0 C -0.381,0.053 -0.605,0.089 -0.831,0.116 -2.051,0.259 -1.97,-1.664 -0.089,-1.712 0.499,-1.727 0.863,-1.246 0.6,-0.719 0.449,-0.414 0.153,-0.178 0,0"
       style="fill:#f8be00;fill-opacity:1;fill-rule:evenodd;stroke:none"
       transform="matrix(0.35277776,0,0,-0.35277776,48.452265,95.23316)"
       clip-path="url(#clipPath112)" />
    <path
       id="path113"
       d="M 0,0 C -0.658,-0.187 -1.47,-1.188 -0.299,-1.969 0.157,-2.268 1.456,-1.285 1.076,0.164 0.632,0.101 0.305,0.087 0,0"
       style="fill:#f8be00;fill-opacity:1;fill-rule:evenodd;stroke:none"
       transform="matrix(0.35277776,0,0,-0.35277776,44.448625,95.20822)"
       clip-path="url(#clipPath114)" />
    <path
       id="path115"
       d="M 0,0 C -0.158,-0.626 0.035,-1.061 0.548,-1.227 0.99,-1.37 1.663,-0.933 1.805,-0.41 2.173,0.97 0.243,0.953 0,0"
       style="fill:#f8be00;fill-opacity:1;fill-rule:evenodd;stroke:none"
       transform="matrix(0.35277776,0,0,-0.35277776,46.22786,95.41537)"
       clip-path="url(#clipPath116)" />
    <path
       id="path117"
       d="M 0,0 C -0.155,-0.264 -0.211,-0.586 -0.348,-0.982 0.007,-1.24 0.257,-1.422 0.494,-1.595 2.929,-0.61 0.851,1.437 0,0"
       style="fill:#f8be00;fill-opacity:1;fill-rule:evenodd;stroke:none"
       transform="matrix(0.35277776,0,0,-0.35277776,40.152815,95.542087)"
       clip-path="url(#clipPath118)" />
    <path
       id="path119"
       d="m 0,0 c -0.806,-0.041 -1.364,-0.323 -1.341,-1.379 0.2,-0.162 0.38,-0.307 0.558,-0.453 0.482,-0.4 1.352,0.12 1.24,0.738 C 0.386,-0.7 0.413,-0.253 0,0"
       style="fill:#f8be00;fill-opacity:1;fill-rule:evenodd;stroke:none"
       transform="matrix(0.35277776,0,0,-0.35277776,42.570542,95.284031)"
       clip-path="url(#clipPath120)" />
    <path
       id="path121"
       d="m 0,0 c -0.027,-0.4 0.255,-0.829 0.659,-0.944 0.465,-0.132 0.788,0.098 1.017,0.513 -0.068,0.487 -0.068,1 -0.534,1.443 C 0.466,0.952 0.048,0.669 0,0"
       style="fill:#f8be00;fill-opacity:1;fill-rule:evenodd;stroke:none"
       transform="matrix(0.35277776,0,0,-0.35277776,38.177753,95.715231)"
       clip-path="url(#clipPath122)" />
    <path
       id="path123"
       d="M 0,0 C -0.27,0.077 -0.771,-0.218 -0.93,-0.831 -1.179,-1.785 0.048,-2.252 0.388,-1.192 0.539,-0.723 0.334,-0.096 0,0"
       style="fill:#f8be00;fill-opacity:1;fill-rule:evenodd;stroke:none"
       transform="matrix(0.35277776,0,0,-0.35277776,50.215766,95.08076)"
       clip-path="url(#clipPath124)" />
    <path
       id="path125"
       d="M 0,0 C -0.381,0.053 -0.605,0.089 -0.831,0.116 -2.051,0.259 -1.97,-1.664 -0.089,-1.712 0.499,-1.727 0.863,-1.246 0.6,-0.719 0.449,-0.414 0.153,-0.178 0,0"
       style="fill:#f8be00;fill-opacity:1;fill-rule:evenodd;stroke:none"
       transform="matrix(0.35277776,0,0,-0.35277776,61.819084,94.835615)"
       clip-path="url(#clipPath126)" />
    <path
       id="path127"
       d="M 0,0 C -0.658,-0.187 -1.47,-1.188 -0.299,-1.969 0.157,-2.268 1.456,-1.285 1.076,0.164 0.632,0.101 0.305,0.087 0,0"
       style="fill:#f8be00;fill-opacity:1;fill-rule:evenodd;stroke:none"
       transform="matrix(0.35277776,0,0,-0.35277776,57.815446,94.810673)"
       clip-path="url(#clipPath128)" />
    <path
       id="path129"
       d="M 0,0 C -0.158,-0.626 0.035,-1.061 0.548,-1.227 0.99,-1.37 1.663,-0.933 1.805,-0.41 2.173,0.97 0.243,0.953 0,0"
       style="fill:#f8be00;fill-opacity:1;fill-rule:evenodd;stroke:none"
       transform="matrix(0.35277776,0,0,-0.35277776,59.594679,95.017826)"
       clip-path="url(#clipPath130)" />
    <path
       id="path131"
       d="M 0,0 C -0.155,-0.264 -0.211,-0.586 -0.348,-0.982 0.007,-1.24 0.257,-1.422 0.494,-1.595 2.93,-0.61 0.851,1.437 0,0"
       style="fill:#f8be00;fill-opacity:1;fill-rule:evenodd;stroke:none"
       transform="matrix(0.35277776,0,0,-0.35277776,53.5196,95.144543)"
       clip-path="url(#clipPath132)" />
    <path
       id="path133"
       d="m 0,0 c -0.806,-0.041 -1.364,-0.323 -1.341,-1.379 0.2,-0.162 0.38,-0.307 0.558,-0.453 0.482,-0.4 1.352,0.12 1.24,0.738 C 0.386,-0.7 0.413,-0.253 0,0"
       style="fill:#f8be00;fill-opacity:1;fill-rule:evenodd;stroke:none"
       transform="matrix(0.35277776,0,0,-0.35277776,55.937362,94.886487)"
       clip-path="url(#clipPath134)" />
    <path
       id="path135"
       d="m 0,0 c -0.027,-0.4 0.255,-0.829 0.659,-0.944 0.465,-0.132 0.788,0.098 1.017,0.513 -0.068,0.487 -0.069,1 -0.534,1.443 C 0.466,0.952 0.048,0.669 0,0"
       style="fill:#f8be00;fill-opacity:1;fill-rule:evenodd;stroke:none"
       transform="matrix(0.35277776,0,0,-0.35277776,51.544574,95.317721)"
       clip-path="url(#clipPath136)" />
    <path
       id="path137"
       d="M 0,0 C -0.38,0.053 -0.605,0.089 -0.831,0.116 -2.051,0.259 -1.97,-1.664 -0.089,-1.712 0.499,-1.727 0.863,-1.246 0.6,-0.719 0.449,-0.414 0.153,-0.178 0,0"
       style="fill:#f8be00;fill-opacity:1;fill-rule:evenodd;stroke:none"
       transform="matrix(0.35277776,0,0,-0.35277776,73.055552,94.571138)"
       clip-path="url(#clipPath138)" />
    <path
       id="path139"
       d="M 0,0 C -0.658,-0.187 -1.47,-1.188 -0.299,-1.969 0.157,-2.268 1.456,-1.285 1.076,0.164 0.632,0.101 0.305,0.087 0,0"
       style="fill:#f8be00;fill-opacity:1;fill-rule:evenodd;stroke:none"
       transform="matrix(0.35277776,0,0,-0.35277776,69.051877,94.546233)"
       clip-path="url(#clipPath140)" />
    <path
       id="path141"
       d="M 0,0 C -0.158,-0.626 0.035,-1.061 0.548,-1.227 0.99,-1.37 1.663,-0.933 1.805,-0.41 2.173,0.97 0.243,0.953 0,0"
       style="fill:#f8be00;fill-opacity:1;fill-rule:evenodd;stroke:none"
       transform="matrix(0.35277776,0,0,-0.35277776,70.831147,94.753383)"
       clip-path="url(#clipPath142)" />
    <path
       id="path143"
       d="M 0,0 C -0.155,-0.264 -0.211,-0.586 -0.348,-0.982 0.007,-1.24 0.257,-1.422 0.494,-1.595 2.929,-0.61 0.851,1.437 0,0"
       style="fill:#f8be00;fill-opacity:1;fill-rule:evenodd;stroke:none"
       transform="matrix(0.35277776,0,0,-0.35277776,64.756065,94.8801)"
       clip-path="url(#clipPath144)" />
    <path
       id="path145"
       d="m 0,0 c -0.806,-0.041 -1.364,-0.323 -1.341,-1.379 0.2,-0.162 0.38,-0.307 0.558,-0.453 0.482,-0.4 1.352,0.12 1.24,0.738 C 0.386,-0.7 0.413,-0.253 0,0"
       style="fill:#f8be00;fill-opacity:1;fill-rule:evenodd;stroke:none"
       transform="matrix(0.35277776,0,0,-0.35277776,67.173793,94.622044)"
       clip-path="url(#clipPath146)" />
    <path
       id="path147"
       d="m 0,0 c -0.027,-0.4 0.255,-0.829 0.659,-0.944 0.465,-0.132 0.788,0.098 1.017,0.513 -0.068,0.487 -0.068,1 -0.534,1.443 C 0.466,0.952 0.048,0.669 0,0"
       style="fill:#f8be00;fill-opacity:1;fill-rule:evenodd;stroke:none"
       transform="matrix(0.35277776,0,0,-0.35277776,62.781003,95.05328)"
       clip-path="url(#clipPath148)" />
    <path
       id="path149"
       d="M 0,0 C -0.381,0.053 -0.605,0.089 -0.831,0.116 -2.051,0.259 -1.97,-1.664 -0.089,-1.712 0.499,-1.727 0.863,-1.246 0.6,-0.719 0.449,-0.414 0.153,-0.178 0,0"
       style="fill:#f8be00;fill-opacity:1;fill-rule:evenodd;stroke:none"
       transform="matrix(0.35277776,0,0,-0.35277776,84.406706,94.283094)"
       clip-path="url(#clipPath150)" />
    <path
       id="path151"
       d="M 0,0 C -0.658,-0.187 -1.47,-1.188 -0.299,-1.969 0.157,-2.268 1.456,-1.285 1.076,0.164 0.632,0.101 0.305,0.087 0,0"
       style="fill:#f8be00;fill-opacity:1;fill-rule:evenodd;stroke:none"
       transform="matrix(0.35277776,0,0,-0.35277776,80.403066,94.258154)"
       clip-path="url(#clipPath152)" />
    <path
       id="path153"
       d="M 0,0 C -0.158,-0.626 0.035,-1.061 0.548,-1.227 0.99,-1.37 1.663,-0.933 1.805,-0.41 2.173,0.97 0.243,0.953 0,0"
       style="fill:#f8be00;fill-opacity:1;fill-rule:evenodd;stroke:none"
       transform="matrix(0.35277776,0,0,-0.35277776,82.182301,94.46527)"
       clip-path="url(#clipPath154)" />
    <path
       id="path155"
       d="M 0,0 C -0.155,-0.264 -0.211,-0.586 -0.348,-0.982 0.007,-1.24 0.257,-1.422 0.494,-1.595 2.929,-0.61 0.851,1.437 0,0"
       style="fill:#f8be00;fill-opacity:1;fill-rule:evenodd;stroke:none"
       transform="matrix(0.35277776,0,0,-0.35277776,76.107256,94.592059)"
       clip-path="url(#clipPath156)" />
    <path
       id="path157"
       d="m 0,0 c -0.806,-0.041 -1.364,-0.323 -1.341,-1.379 0.2,-0.162 0.38,-0.307 0.558,-0.453 0.482,-0.4 1.352,0.12 1.24,0.738 C 0.386,-0.7 0.413,-0.253 0,0"
       style="fill:#f8be00;fill-opacity:1;fill-rule:evenodd;stroke:none"
       transform="matrix(0.35277776,0,0,-0.35277776,78.524947,94.333965)"
       clip-path="url(#clipPath158)" />
    <path
       id="path159"
       d="m 0,0 c -0.027,-0.4 0.255,-0.829 0.659,-0.944 0.465,-0.132 0.788,0.098 1.017,0.513 -0.068,0.487 -0.068,1 -0.534,1.443 C 0.466,0.952 0.048,0.669 0,0"
       style="fill:#f8be00;fill-opacity:1;fill-rule:evenodd;stroke:none"
       transform="matrix(0.35277776,0,0,-0.35277776,74.132157,94.765202)"
       clip-path="url(#clipPath160)" />
    <path
       id="path161"
       d="M 0,0 C -0.27,0.077 -0.771,-0.218 -0.93,-0.831 -1.179,-1.785 0.048,-2.252 0.388,-1.192 0.539,-0.723 0.334,-0.096 0,0"
       style="fill:#f8be00;fill-opacity:1;fill-rule:evenodd;stroke:none"
       transform="matrix(0.35277776,0,0,-0.35277776,86.17017,94.130731)"
       clip-path="url(#clipPath162)" />
    <path
       id="path163"
       d="M 0,0 C -0.381,0.053 -0.605,0.089 -0.831,0.116 -2.051,0.259 -1.97,-1.664 -0.088,-1.712 0.499,-1.727 0.863,-1.246 0.6,-0.719 0.449,-0.414 0.153,-0.178 0,0"
       style="fill:#f8be00;fill-opacity:1;fill-rule:evenodd;stroke:none"
       transform="matrix(0.35277776,0,0,-0.35277776,97.773525,93.88555)"
       clip-path="url(#clipPath164)" />
    <path
       id="path165"
       d="M 0,0 C -0.658,-0.187 -1.47,-1.188 -0.299,-1.969 0.157,-2.268 1.456,-1.285 1.076,0.164 0.632,0.101 0.305,0.087 0,0"
       style="fill:#f8be00;fill-opacity:1;fill-rule:evenodd;stroke:none"
       transform="matrix(0.35277776,0,0,-0.35277776,93.76985,93.860607)"
       clip-path="url(#clipPath166)" />
    <path
       id="path167"
       d="M 0,0 C -0.158,-0.626 0.035,-1.061 0.548,-1.227 0.99,-1.37 1.663,-0.933 1.805,-0.41 2.173,0.97 0.243,0.953 0,0"
       style="fill:#f8be00;fill-opacity:1;fill-rule:evenodd;stroke:none"
       transform="matrix(0.35277776,0,0,-0.35277776,95.54912,94.067795)"
       clip-path="url(#clipPath168)" />
    <path
       id="path169"
       d="M 0,0 C -0.155,-0.264 -0.211,-0.586 -0.348,-0.982 0.007,-1.24 0.257,-1.422 0.494,-1.595 2.929,-0.61 0.851,1.437 0,0"
       style="fill:#f8be00;fill-opacity:1;fill-rule:evenodd;stroke:none"
       transform="matrix(0.35277776,0,0,-0.35277776,89.47404,94.194512)"
       clip-path="url(#clipPath170)" />
    <path
       id="path171"
       d="m 0,0 c -0.806,-0.041 -1.365,-0.323 -1.341,-1.379 0.2,-0.162 0.38,-0.307 0.558,-0.453 0.482,-0.4 1.352,0.12 1.24,0.738 C 0.386,-0.7 0.413,-0.253 0,0"
       style="fill:#f8be00;fill-opacity:1;fill-rule:evenodd;stroke:none"
       transform="matrix(0.35277776,0,0,-0.35277776,91.891768,93.936455)"
       clip-path="url(#clipPath172)" />
    <path
       id="path173"
       d="m 0,0 c -0.027,-0.4 0.255,-0.829 0.659,-0.944 0.465,-0.132 0.788,0.098 1.017,0.513 -0.068,0.487 -0.068,1 -0.534,1.443 C 0.466,0.952 0.048,0.669 0,0"
       style="fill:#f8be00;fill-opacity:1;fill-rule:evenodd;stroke:none"
       transform="matrix(0.35277776,0,0,-0.35277776,87.498979,94.367655)"
       clip-path="url(#clipPath174)" />
    <path
       id="path175"
       d="M 0,0 C 0.587,-0.015 0.952,0.467 0.689,0.994 0.537,1.299 0.241,1.534 0.088,1.712 -0.292,1.765 -0.516,1.801 -0.742,1.828 -1.963,1.972 -1.882,0.048 0,0"
       style="fill:#f8be00;fill-opacity:1;fill-rule:evenodd;stroke:none"
       transform="matrix(0.35277776,0,0,-0.35277776,108.97873,94.225203)"
       clip-path="url(#clipPath176)" />
    <path
       id="path177"
       d="M 0,0 C -0.658,-0.187 -1.47,-1.188 -0.299,-1.969 0.157,-2.268 1.456,-1.285 1.076,0.164 0.632,0.101 0.305,0.087 0,0"
       style="fill:#f8be00;fill-opacity:1;fill-rule:evenodd;stroke:none"
       transform="matrix(0.35277776,0,0,-0.35277776,105.00632,93.596201)"
       clip-path="url(#clipPath178)" />
    <path
       id="path179"
       d="M 0,0 C -0.158,-0.626 0.035,-1.061 0.548,-1.227 0.99,-1.37 1.663,-0.933 1.805,-0.41 2.173,0.97 0.243,0.953 0,0"
       style="fill:#f8be00;fill-opacity:1;fill-rule:evenodd;stroke:none"
       transform="matrix(0.35277776,0,0,-0.35277776,106.78559,93.803317)"
       clip-path="url(#clipPath180)" />
    <path
       id="path181"
       d="M 0,0 C -0.155,-0.264 -0.211,-0.586 -0.348,-0.982 0.007,-1.24 0.257,-1.422 0.494,-1.595 2.929,-0.61 0.851,1.437 0,0"
       style="fill:#f8be00;fill-opacity:1;fill-rule:evenodd;stroke:none"
       transform="matrix(0.35277776,0,0,-0.35277776,100.71051,93.930071)"
       clip-path="url(#clipPath182)" />
    <path
       id="path183"
       d="m 0,0 c -0.806,-0.041 -1.365,-0.323 -1.341,-1.379 0.2,-0.162 0.38,-0.307 0.558,-0.453 0.482,-0.4 1.352,0.12 1.24,0.738 C 0.386,-0.7 0.413,-0.253 0,0"
       style="fill:#f8be00;fill-opacity:1;fill-rule:evenodd;stroke:none"
       transform="matrix(0.35277776,0,0,-0.35277776,103.12823,93.672012)"
       clip-path="url(#clipPath184)" />
    <path
       id="path185"
       d="m 0,0 c -0.027,-0.4 0.255,-0.829 0.659,-0.944 0.465,-0.132 0.788,0.098 1.017,0.513 -0.068,0.487 -0.069,1 -0.534,1.443 C 0.466,0.952 0.048,0.669 0,0"
       style="fill:#f8be00;fill-opacity:1;fill-rule:evenodd;stroke:none"
       transform="matrix(0.35277776,0,0,-0.35277776,98.735444,94.103214)"
       clip-path="url(#clipPath186)" />
  </g>
</svg>
