<?xml version="1.0" encoding="UTF-8" standalone="no"?>
<!-- Created with Inkscape (http://www.inkscape.org/) -->

<svg
   width="6.3503652mm"
   height="11.880825mm"
   viewBox="0 0 6.3503652 11.880825"
   version="1.1"
   id="svg1"
   xmlns="http://www.w3.org/2000/svg"
   xmlns:svg="http://www.w3.org/2000/svg">
  <defs
     id="defs1">
    <clipPath
       clipPathUnits="userSpaceOnUse"
       id="clipPath8">
      <path
         d="M 0,1440 H 251.455 V 0 H 0 Z"
         transform="translate(-7.6853004,-895.88702)"
         id="path8" />
    </clipPath>
    <clipPath
       clipPathUnits="userSpaceOnUse"
       id="clipPath10">
      <path
         d="M 0,1440 H 251.455 V 0 H 0 Z"
         transform="translate(-11.5603,-898.18542)"
         id="path10" />
    </clipPath>
    <clipPath
       clipPathUnits="userSpaceOnUse"
       id="clipPath12">
      <path
         d="M 0,1440 H 251.455 V 0 H 0 Z"
         transform="translate(-14.954901,-894.39662)"
         id="path12" />
    </clipPath>
    <clipPath
       clipPathUnits="userSpaceOnUse"
       id="clipPath14">
      <path
         d="M 0,1440 H 251.455 V 0 H 0 Z"
         transform="translate(-14.5857,-888.25732)"
         id="path14" />
    </clipPath>
    <clipPath
       clipPathUnits="userSpaceOnUse"
       id="clipPath16">
      <path
         d="M 0,1440 H 251.455 V 0 H 0 Z"
         transform="translate(-6.6433001,-902.74572)"
         id="path16" />
    </clipPath>
    <clipPath
       clipPathUnits="userSpaceOnUse"
       id="clipPath18">
      <path
         d="M 0,1440 H 251.455 V 0 H 0 Z"
         transform="translate(-15.2536,-893.08342)"
         id="path18" />
    </clipPath>
    <clipPath
       clipPathUnits="userSpaceOnUse"
       id="clipPath20">
      <path
         d="M 0,1440 H 251.455 V 0 H 0 Z"
         transform="translate(-15.738,-891.25422)"
         id="path20" />
    </clipPath>
    <clipPath
       clipPathUnits="userSpaceOnUse"
       id="clipPath22">
      <path
         d="M 0,1440 H 251.455 V 0 H 0 Z"
         transform="translate(-17.8459,-900.13452)"
         id="path22" />
    </clipPath>
    <clipPath
       clipPathUnits="userSpaceOnUse"
       id="clipPath24">
      <path
         d="M 0,1440 H 251.455 V 0 H 0 Z"
         transform="translate(-9.1693,-911.26062)"
         id="path24" />
    </clipPath>
    <clipPath
       clipPathUnits="userSpaceOnUse"
       id="clipPath26">
      <path
         d="M 0,1440 H 251.455 V 0 H 0 Z"
         transform="translate(-12.5004,-883.41772)"
         id="path26" />
    </clipPath>
    <clipPath
       clipPathUnits="userSpaceOnUse"
       id="clipPath28">
      <path
         d="M 0,1440 H 251.455 V 0 H 0 Z"
         transform="translate(-13.659,-910.63952)"
         id="path28" />
    </clipPath>
    <clipPath
       clipPathUnits="userSpaceOnUse"
       id="clipPath30">
      <path
         d="M 0,1440 H 251.455 V 0 H 0 Z"
         transform="translate(-14.8702,-881.22882)"
         id="path30" />
    </clipPath>
    <clipPath
       clipPathUnits="userSpaceOnUse"
       id="clipPath32">
      <path
         d="M 0,1440 H 251.455 V 0 H 0 Z"
         transform="translate(-15.5022,-895.39162)"
         id="path32" />
    </clipPath>
    <clipPath
       clipPathUnits="userSpaceOnUse"
       id="clipPath34">
      <path
         d="M 0,1440 H 251.455 V 0 H 0 Z"
         transform="translate(-15.6411,-897.20122)"
         id="path34" />
    </clipPath>
    <clipPath
       clipPathUnits="userSpaceOnUse"
       id="clipPath36">
      <path
         d="M 0,1440 H 251.455 V 0 H 0 Z"
         transform="translate(-16.6231,-894.55262)"
         id="path36" />
    </clipPath>
    <clipPath
       clipPathUnits="userSpaceOnUse"
       id="clipPath38">
      <path
         d="M 0,1440 H 251.455 V 0 H 0 Z"
         transform="translate(-16.274901,-887.45612)"
         id="path38" />
    </clipPath>
    <clipPath
       clipPathUnits="userSpaceOnUse"
       id="clipPath40">
      <path
         d="M 0,1440 H 251.455 V 0 H 0 Z"
         transform="translate(-18.3015,-909.65603)"
         id="path40" />
    </clipPath>
    <clipPath
       clipPathUnits="userSpaceOnUse"
       id="clipPath42">
      <path
         d="M 0,1440 H 251.455 V 0 H 0 Z"
         transform="translate(-16.710501,-891.75632)"
         id="path42" />
    </clipPath>
    <clipPath
       clipPathUnits="userSpaceOnUse"
       id="clipPath44">
      <path
         d="M 0,1440 H 251.455 V 0 H 0 Z"
         transform="translate(-16.7578,-890.22292)"
         id="path44" />
    </clipPath>
    <clipPath
       clipPathUnits="userSpaceOnUse"
       id="clipPath46">
      <path
         d="M 0,1440 H 251.455 V 0 H 0 Z"
         transform="translate(-17.4139,-888.83392)"
         id="path46" />
    </clipPath>
    <clipPath
       clipPathUnits="userSpaceOnUse"
       id="clipPath48">
      <path
         d="M 0,1440 H 251.455 V 0 H 0 Z"
         transform="translate(-17.685201,-897.90352)"
         id="path48" />
    </clipPath>
    <clipPath
       clipPathUnits="userSpaceOnUse"
       id="clipPath50">
      <path
         d="M 0,1440 H 251.455 V 0 H 0 Z"
         transform="translate(-18.067701,-901.35792)"
         id="path50" />
    </clipPath>
    <clipPath
       clipPathUnits="userSpaceOnUse"
       id="clipPath52">
      <path
         d="M 0,1440 H 251.455 V 0 H 0 Z"
         transform="translate(-18.470301,-903.30402)"
         id="path52" />
    </clipPath>
    <clipPath
       clipPathUnits="userSpaceOnUse"
       id="clipPath54">
      <path
         d="M 0,1440 H 251.455 V 0 H 0 Z"
         transform="translate(-17.774001,-893.40952)"
         id="path54" />
    </clipPath>
    <clipPath
       clipPathUnits="userSpaceOnUse"
       id="clipPath56">
      <path
         d="M 0,1440 H 251.455 V 0 H 0 Z"
         transform="translate(-17.902701,-896.69892)"
         id="path56" />
    </clipPath>
    <clipPath
       clipPathUnits="userSpaceOnUse"
       id="clipPath58">
      <path
         d="M 0,1440 H 251.455 V 0 H 0 Z"
         transform="translate(-18.1407,-895.38982)"
         id="path58" />
    </clipPath>
  </defs>
  <g
     id="layer1"
     transform="translate(-27.566218,-109.45359)">
    <path
       id="path7"
       d="m 0,0 c -0.014,-0.034 -0.048,-0.056 -0.085,-0.054 -0.038,0.002 -0.045,0.028 -0.018,0.066 0.023,0.035 -0.05,0.065 -0.17,0.071 -0.118,0.007 -1.16,0.073 -2.329,0.15 -3.873,0.254 -4.164,0.266 -4.19,0.197 -0.014,-0.036 0.025,-0.091 0.089,-0.127 0.061,-0.036 0.773,-0.109 1.587,-0.162 3.436,-0.233 11.894,-0.604 12.03,-0.53 0.043,0.022 0.076,0.082 0.078,0.138 0.005,0.088 -0.303,0.112 -2.678,0.203 C 1.269,0.068 0.035,0.08 0,0"
       style="fill:#f7ebd8;fill-opacity:1;fill-rule:nonzero;stroke:none"
       transform="matrix(0.35277776,0,0,-0.35277776,29.963286,115.22179)"
       clip-path="url(#clipPath8)" />
    <path
       id="path9"
       d="m 0,0 c -0.192,0.019 -0.446,0.054 -0.559,0.078 -0.114,0.024 -0.564,0.088 -1.005,0.145 -0.441,0.056 -1,0.142 -1.246,0.19 -0.247,0.049 -0.758,0.134 -1.148,0.192 -0.389,0.058 -0.801,0.122 -0.925,0.144 -0.193,0.034 -0.804,0.147 -1.498,0.274 -0.106,0.019 -0.435,0.057 -0.736,0.084 -0.461,0.04 -0.548,0.031 -0.569,-0.056 -0.013,-0.052 0.026,-0.124 0.082,-0.147 0.059,-0.028 0.312,-0.075 0.562,-0.108 0.249,-0.032 0.583,-0.079 0.74,-0.105 0.16,-0.027 0.401,-0.066 0.543,-0.089 1.245,-0.195 1.608,-0.248 2.14,-0.302 0.332,-0.035 0.679,-0.081 0.766,-0.103 0.089,-0.023 0.286,-0.064 0.446,-0.091 0.159,-0.029 0.383,-0.069 0.504,-0.094 0.121,-0.024 0.331,-0.061 0.479,-0.082 0.147,-0.023 0.32,-0.057 0.396,-0.078 0.075,-0.023 0.335,-0.069 0.572,-0.102 0.239,-0.033 0.921,-0.146 1.522,-0.248 0.6,-0.105 1.366,-0.228 1.71,-0.276 C 3.12,-0.823 3.434,-0.886 3.479,-0.918 3.585,-0.992 3.711,-1.015 3.723,-0.962 3.801,-0.654 3.79,-0.643 3.387,-0.579 3.17,-0.545 2.828,-0.498 2.615,-0.472 2.218,-0.425 2.002,-0.39 1.179,-0.238 0.918,-0.189 0.621,-0.138 0.525,-0.127 0.429,-0.114 0.35,-0.089 0.352,-0.068 0.353,-0.05 0.192,-0.018 0,0"
       style="fill:#f7ebd8;fill-opacity:1;fill-rule:nonzero;stroke:none"
       transform="matrix(0.35277776,0,0,-0.35277776,31.3303,114.41097)"
       clip-path="url(#clipPath10)" />
    <path
       id="path11"
       d="m 0,0 c -0.35,-0.046 -0.809,-0.111 -1.026,-0.149 -0.35,-0.058 -0.901,-0.114 -1.214,-0.123 -0.066,-0.003 -0.173,-0.049 -0.247,-0.107 -0.074,-0.058 -0.13,-0.077 -0.129,-0.046 0.004,0.06 -0.586,0.044 -0.643,-0.018 -0.02,-0.021 -0.093,-0.036 -0.164,-0.037 -0.317,-0.001 -1.052,-0.085 -2.686,-0.304 -0.264,-0.034 -0.745,-0.083 -1.053,-0.106 -0.311,-0.023 -0.634,-0.063 -0.713,-0.089 -0.08,-0.025 -0.332,-0.057 -0.564,-0.07 -0.233,-0.013 -0.679,-0.064 -1.003,-0.116 -0.324,-0.05 -0.658,-0.092 -0.751,-0.096 -0.214,-0.006 -0.384,-0.206 -0.233,-0.273 0.051,-0.022 0.175,-0.03 0.273,-0.016 0.096,0.016 0.554,0.083 1.008,0.148 0.453,0.066 0.893,0.114 0.969,0.108 0.079,-0.007 0.318,0.024 0.532,0.071 0.215,0.048 0.507,0.093 0.648,0.102 0.259,0.016 0.788,0.063 0.907,0.083 0.289,0.045 2.034,0.259 2.395,0.29 0.247,0.023 0.731,0.071 1.067,0.109 0.337,0.037 0.718,0.076 0.841,0.088 0.125,0.011 0.401,0.038 0.614,0.061 0.215,0.023 0.477,0.049 0.583,0.06 0.111,0.011 0.266,0.031 0.358,0.046 0.088,0.014 0.277,0.035 0.419,0.045 0.575,0.038 0.716,0.118 0.549,0.307 C 0.642,0.076 0.597,0.078 0,0"
       style="fill:#f7ebd8;fill-opacity:1;fill-rule:nonzero;stroke:none"
       transform="matrix(0.35277776,0,0,-0.35277776,32.527839,115.74757)"
       clip-path="url(#clipPath12)" />
    <path
       id="path13"
       d="m 0,0 c -0.149,-0.12 -0.456,-0.363 -0.683,-0.543 -0.228,-0.18 -0.543,-0.432 -0.704,-0.561 -0.161,-0.131 -0.388,-0.298 -0.505,-0.374 -0.117,-0.075 -0.318,-0.223 -0.444,-0.328 -0.129,-0.105 -0.321,-0.234 -0.43,-0.285 -0.176,-0.084 -0.54,-0.356 -1.206,-0.897 -0.093,-0.077 -0.192,-0.135 -0.226,-0.133 -0.033,10e-4 -0.044,-0.024 -0.022,-0.063 0.021,-0.038 -0.003,-0.066 -0.054,-0.063 -0.089,0.005 -0.311,-0.137 -0.713,-0.459 -0.133,-0.107 -0.275,-0.196 -0.305,-0.195 -0.032,0.002 -0.249,-0.158 -0.479,-0.348 -0.228,-0.192 -0.42,-0.343 -0.42,-0.333 0.002,0.03 -0.698,-0.434 -1.031,-0.684 -0.141,-0.105 -0.291,-0.194 -0.323,-0.192 -0.035,0.001 -0.159,-0.088 -0.285,-0.204 -0.125,-0.115 -0.32,-0.266 -0.442,-0.34 -0.119,-0.073 -0.376,-0.253 -0.564,-0.395 -0.189,-0.143 -0.366,-0.262 -0.39,-0.26 -0.089,0.004 -0.205,-0.157 -0.187,-0.26 0.025,-0.174 0.22,-0.148 0.438,0.061 0.109,0.104 0.426,0.34 0.7,0.522 0.272,0.183 0.575,0.402 0.667,0.484 0.091,0.081 0.276,0.218 0.401,0.3 0.127,0.084 0.33,0.222 0.442,0.306 0.112,0.084 0.263,0.187 0.333,0.228 0.289,0.17 0.573,0.361 1.034,0.699 0.274,0.202 0.594,0.424 0.718,0.5 0.122,0.075 0.334,0.231 0.468,0.345 0.133,0.115 0.262,0.209 0.284,0.208 0.023,-0.002 0.127,0.071 0.234,0.161 0.357,0.301 0.974,0.772 1.084,0.827 0.06,0.031 0.144,0.08 0.18,0.105 0.036,0.027 0.188,0.131 0.333,0.232 0.335,0.23 0.648,0.46 0.897,0.654 0.107,0.085 0.338,0.262 0.512,0.395 0.176,0.131 0.399,0.309 0.495,0.392 0.096,0.084 0.476,0.377 0.844,0.651 C 1.574,0.842 1.553,0.827 1.613,0.824 1.645,0.822 1.722,0.892 1.789,0.986 1.877,1.11 1.888,1.162 1.831,1.201 1.671,1.31 1.663,1.304 0.537,0.427 0.388,0.313 0.149,0.12 0,0"
       style="fill:#f7ebd8;fill-opacity:1;fill-rule:nonzero;stroke:none"
       transform="matrix(0.35277776,0,0,-0.35277776,32.397594,117.91338)"
       clip-path="url(#clipPath14)" />
    <path
       id="path15"
       d="m 0,0 c 0.087,-0.064 0.194,-0.117 0.244,-0.12 0.052,-0.002 0.109,-0.024 0.134,-0.05 0.024,-0.028 0.079,-0.056 0.131,-0.066 0.049,-0.01 0.265,-0.11 0.484,-0.227 0.218,-0.117 0.507,-0.253 0.646,-0.308 0.139,-0.053 0.281,-0.12 0.315,-0.148 0.034,-0.028 0.426,-0.218 0.877,-0.425 0.453,-0.207 0.957,-0.448 1.132,-0.542 0.174,-0.093 0.411,-0.193 0.534,-0.227 0.122,-0.033 0.235,-0.08 0.251,-0.106 0.033,-0.054 1.488,-0.765 1.979,-0.967 0.176,-0.072 0.368,-0.158 0.439,-0.194 0.131,-0.067 0.416,-0.175 1.282,-0.482 0.494,-0.177 0.969,-0.389 1.22,-0.543 0.064,-0.039 0.159,-0.072 0.218,-0.075 0.061,-0.003 0.239,-0.099 0.408,-0.214 0.167,-0.116 0.326,-0.211 0.358,-0.212 0.104,-0.005 0.156,0.206 0.074,0.296 -0.104,0.114 -0.548,0.326 -0.552,0.264 -10e-4,-0.028 -0.026,-0.013 -0.052,0.035 -0.047,0.08 -0.85,0.449 -1.331,0.607 -0.405,0.134 -2.86,1.122 -3.133,1.26 -0.145,0.074 -0.278,0.16 -0.296,0.19 -0.019,0.032 -0.121,0.081 -0.229,0.112 -0.107,0.031 -0.283,0.112 -0.39,0.181 -0.193,0.126 -1.329,0.593 -1.481,0.607 -0.044,0.004 -0.075,0.03 -0.073,0.062 0.002,0.031 -0.076,0.09 -0.17,0.132 -0.098,0.043 -0.254,0.123 -0.36,0.185 C 2.555,-0.915 2.25,-0.77 1.981,-0.653 1.71,-0.537 1.329,-0.358 1.132,-0.257 0.587,0.026 0.416,0.107 0.184,0.195 -0.15,0.323 -0.268,0.197 0,0"
       style="fill:#f7ebd8;fill-opacity:1;fill-rule:nonzero;stroke:none"
       transform="matrix(0.35277776,0,0,-0.35277776,29.595692,112.8022)"
       clip-path="url(#clipPath16)" />
    <path
       id="path17"
       d="m 0,0 c -0.524,-0.177 -1.03,-0.354 -1.131,-0.397 -0.099,-0.043 -0.203,-0.079 -0.228,-0.079 -0.028,-0.001 -0.109,-0.035 -0.182,-0.077 -0.073,-0.042 -0.427,-0.169 -0.787,-0.28 -0.359,-0.113 -0.713,-0.228 -0.785,-0.257 -0.334,-0.131 -0.651,-0.222 -0.751,-0.217 -0.064,0.003 -0.231,-0.039 -0.369,-0.091 -0.138,-0.052 -0.274,-0.1 -0.3,-0.103 -0.031,-0.004 -0.063,-0.013 -0.084,-0.022 -0.017,-0.008 -0.05,-0.019 -0.08,-0.027 -0.027,-0.008 -0.194,-0.07 -0.378,-0.141 -0.787,-0.304 -1.396,-0.511 -1.487,-0.507 -0.032,0.002 -0.372,-0.1 -0.757,-0.226 -0.388,-0.129 -0.937,-0.307 -1.224,-0.401 -0.597,-0.193 -0.766,-0.324 -0.544,-0.42 0.075,-0.033 1.003,0.247 1.51,0.455 0.29,0.12 1.775,0.592 2.127,0.676 0.123,0.03 0.282,0.09 0.361,0.135 0.185,0.109 1.327,0.474 1.459,0.467 0.059,-0.003 0.187,0.03 0.28,0.072 0.211,0.097 0.947,0.313 1.045,0.308 0.04,-0.002 0.282,0.085 0.545,0.193 0.788,0.327 1.079,0.432 1.181,0.427 0.051,-0.003 0.113,0.02 0.133,0.051 0.031,0.045 0.773,0.309 0.888,0.317 0.02,0.001 0.119,0.041 0.233,0.093 C 0.782,0 1.048,0.084 1.262,0.134 1.692,0.235 1.883,0.323 1.887,0.422 1.891,0.504 1.589,0.668 1.546,0.605 1.492,0.532 0.983,0.331 0,0"
       style="fill:#f7ebd8;fill-opacity:1;fill-rule:nonzero;stroke:none"
       transform="matrix(0.35277776,0,0,-0.35277776,32.633214,116.21084)"
       clip-path="url(#clipPath18)" />
    <path
       id="path19"
       d="m 0,0 c -0.002,-0.045 -0.09,-0.124 -0.197,-0.173 -0.104,-0.049 -0.23,-0.123 -0.276,-0.166 -0.14,-0.119 -1.039,-0.631 -1.241,-0.707 -0.097,-0.036 -0.26,-0.115 -0.359,-0.175 -0.1,-0.06 -0.184,-0.089 -0.182,-0.064 10e-4,0.025 -0.047,0.005 -0.115,-0.046 -0.064,-0.05 -0.354,-0.192 -0.643,-0.314 -0.291,-0.123 -0.766,-0.353 -1.057,-0.51 -0.838,-0.455 -1.355,-0.693 -2.749,-1.276 -0.493,-0.207 -0.92,-0.403 -0.942,-0.436 -0.024,-0.031 -0.226,-0.139 -0.457,-0.237 -0.487,-0.209 -0.837,-0.465 -0.796,-0.583 0.014,-0.045 0.083,-0.088 0.147,-0.091 0.063,-0.003 0.143,0.029 0.173,0.07 0.032,0.045 0.188,0.137 0.353,0.211 0.475,0.209 0.881,0.419 0.921,0.474 0.043,0.059 1.829,0.817 1.958,0.831 0.046,0.005 0.122,0.043 0.166,0.083 0.047,0.042 0.105,0.07 0.141,0.069 0.035,-0.002 0.109,0.034 0.168,0.08 0.061,0.048 0.313,0.183 0.57,0.303 0.259,0.12 0.535,0.262 0.627,0.319 0.176,0.104 1.215,0.596 2.177,1.026 0.304,0.136 0.67,0.33 0.809,0.431 0.137,0.1 0.444,0.261 0.674,0.354 0.473,0.192 0.592,0.286 0.544,0.435 C 0.369,0.038 0.006,0.121 0,0"
       style="fill:#f7ebd8;fill-opacity:1;fill-rule:nonzero;stroke:none"
       transform="matrix(0.35277776,0,0,-0.35277776,32.8041,116.85614)"
       clip-path="url(#clipPath20)" />
    <path
       id="path21"
       d="M 0,0 C -0.038,0.034 -0.156,0.141 -0.267,0.239 -0.377,0.337 -0.469,0.395 -0.47,0.368 -0.471,0.341 -0.518,0.364 -0.579,0.426 -0.639,0.484 -0.811,0.606 -0.967,0.7 -1.122,0.792 -1.403,0.977 -1.59,1.109 -1.776,1.239 -2.066,1.43 -2.227,1.526 -2.39,1.621 -2.523,1.723 -2.522,1.749 c 10e-4,0.029 -0.021,0.05 -0.06,0.052 -0.036,0.002 -0.354,0.198 -0.703,0.43 -0.348,0.236 -0.892,0.588 -1.199,0.777 -0.93,0.575 -1.571,0.994 -1.692,1.107 C -6.238,4.173 -6.538,4.36 -6.849,4.534 -7.162,4.71 -7.426,4.866 -7.444,4.887 -7.46,4.908 -7.697,5.076 -7.971,5.262 -8.243,5.448 -8.551,5.663 -8.653,5.743 -8.9,5.934 -9.537,6.28 -9.654,6.286 -9.836,6.295 -9.751,6.163 -9.421,5.929 -9.235,5.796 -8.993,5.635 -8.877,5.565 -8.765,5.5 -8.654,5.423 -8.638,5.402 -8.621,5.38 -8.483,5.288 -8.328,5.194 -8.173,5.099 -8.003,4.983 -7.949,4.932 -7.893,4.882 -7.822,4.84 -7.786,4.838 -7.751,4.836 -7.652,4.772 -7.565,4.698 -7.473,4.616 -7.359,4.572 -7.287,4.593 -7.189,4.619 -7.186,4.613 -7.266,4.564 -7.349,4.511 -7.323,4.48 -7.121,4.384 -6.983,4.32 -6.709,4.154 -6.497,4.011 -6.286,3.868 -6.035,3.706 -5.929,3.647 -5.824,3.587 -5.69,3.488 -5.62,3.418 -5.554,3.352 -5.398,3.243 -5.279,3.18 -5.159,3.114 -4.948,2.983 -4.812,2.888 -4.673,2.791 -4.425,2.632 -4.251,2.531 -4.08,2.43 -3.547,2.085 -3.069,1.764 c 0.48,-0.32 1.023,-0.673 1.206,-0.783 0.181,-0.109 0.466,-0.303 0.622,-0.424 0.159,-0.125 0.37,-0.27 0.476,-0.328 0.105,-0.057 0.253,-0.167 0.34,-0.253 0.084,-0.082 0.296,-0.233 0.473,-0.336 0.173,-0.102 0.396,-0.274 0.493,-0.383 0.018,-0.021 0.038,-0.041 0.059,-0.06 l 0.021,0.4 C 0.598,-0.388 0.576,-0.376 0.552,-0.361 0.283,-0.195 0.037,-0.034 0,0"
       style="fill:#f7ebd8;fill-opacity:1;fill-rule:nonzero;stroke:none"
       transform="matrix(0.35277776,0,0,-0.35277776,33.54772,113.72337)"
       clip-path="url(#clipPath22)" />
    <path
       id="path23"
       d="m 0,0 c 0.654,-0.714 2.369,-2.685 3.787,-4.348 0.309,-0.365 0.65,-0.745 0.751,-0.84 0.1,-0.094 0.312,-0.313 0.463,-0.478 C 5.155,-5.832 5.514,-6.2 5.796,-6.48 6.654,-7.331 7.564,-8.33 7.65,-8.519 7.749,-8.73 7.974,-8.836 8.062,-8.714 8.151,-8.586 8.141,-8.543 7.993,-8.411 7.918,-8.344 7.781,-8.197 7.68,-8.077 7.58,-7.956 7.477,-7.875 7.445,-7.891 7.411,-7.908 7.396,-7.896 7.408,-7.863 7.419,-7.831 7.262,-7.631 7.061,-7.419 6.437,-6.758 5.791,-6.09 5.162,-5.448 4.563,-4.837 3.297,-3.421 3.269,-3.33 3.254,-3.283 2.446,-2.362 0.322,0.034 -0.15,0.566 -0.565,0.989 -0.605,0.977 -0.785,0.926 -0.658,0.717 0,0"
       style="fill:#f7ebd8;fill-opacity:1;fill-rule:nonzero;stroke:none"
       transform="matrix(0.35277776,0,0,-0.35277776,30.486808,109.79833)"
       clip-path="url(#clipPath24)" />
    <path
       id="path25"
       d="M 0,0 C -0.321,-0.363 -0.76,-0.848 -0.981,-1.083 -1.2,-1.315 -1.397,-1.547 -1.42,-1.599 c -0.052,-0.12 -0.523,-0.634 -0.814,-0.89 -0.121,-0.107 -0.223,-0.216 -0.224,-0.24 -0.002,-0.026 -0.09,-0.112 -0.203,-0.198 -0.221,-0.168 -0.23,-0.189 -0.143,-0.357 0.106,-0.207 0.273,-0.13 0.541,0.247 0.145,0.205 0.293,0.372 0.325,0.37 0.034,-0.002 0.064,0.035 0.066,0.081 0.003,0.047 0.093,0.159 0.207,0.258 0.113,0.101 0.205,0.215 0.207,0.264 0.002,0.046 0.049,0.101 0.102,0.117 0.052,0.016 0.101,0.068 0.103,0.11 0.002,0.044 0.142,0.211 0.308,0.37 0.167,0.159 0.305,0.311 0.307,0.334 0.002,0.038 0.226,0.286 0.537,0.592 0.068,0.067 0.238,0.257 0.378,0.424 0.139,0.166 0.363,0.42 0.494,0.566 0.142,0.154 0.224,0.297 0.2,0.343 C 0.945,0.839 0.954,0.853 0.991,0.827 1.027,0.803 1.124,0.858 1.203,0.951 1.284,1.042 1.446,1.218 1.555,1.334 1.668,1.452 1.946,1.758 2.168,2.01 2.393,2.262 2.685,2.574 2.812,2.698 3.044,2.924 3.123,3.12 2.987,3.127 2.838,3.134 1.895,2.147 0,0"
       style="fill:#f7ebd8;fill-opacity:1;fill-rule:nonzero;stroke:none"
       transform="matrix(0.35277776,0,0,-0.35277776,31.661946,119.62068)"
       clip-path="url(#clipPath26)" />
    <path
       id="path27"
       d="M 0,0 C 0.068,-0.09 0.197,-0.332 0.287,-0.528 0.475,-0.944 0.998,-1.852 1.228,-2.16 1.541,-2.582 1.654,-2.755 1.651,-2.807 1.65,-2.834 1.708,-2.925 1.777,-3.006 1.846,-3.086 1.921,-3.2 1.942,-3.253 2.029,-3.482 2.56,-4.326 2.641,-4.36 c 0.048,-0.024 0.074,-0.058 0.056,-0.083 -0.045,-0.068 1.125,-1.834 1.231,-1.86 0.055,-0.013 0.117,0.021 0.143,0.076 0.046,0.099 -0.038,0.246 -0.684,1.181 -0.188,0.273 -0.343,0.524 -0.341,0.552 0.001,0.028 -0.072,0.135 -0.159,0.237 -0.089,0.1 -0.192,0.245 -0.225,0.317 -0.127,0.258 -0.771,1.303 -0.82,1.325 -0.029,0.016 -0.048,0.049 -0.046,0.084 0.003,0.05 -0.405,0.691 -0.658,1.038 -0.033,0.047 -0.056,0.097 -0.055,0.119 0.001,0.023 -0.024,0.072 -0.059,0.119 -0.136,0.18 -0.345,0.577 -0.38,0.721 C 0.622,-0.45 0.574,-0.341 0.53,-0.284 0.49,-0.229 0.41,-0.071 0.356,0.068 0.252,0.322 0.068,0.486 -0.047,0.423 -0.152,0.367 -0.13,0.181 0,0"
       style="fill:#f7ebd8;fill-opacity:1;fill-rule:nonzero;stroke:none"
       transform="matrix(0.35277776,0,0,-0.35277776,32.070675,110.01744)"
       clip-path="url(#clipPath28)" />
    <path
       id="path29"
       d="M 0,0 C -0.062,-0.08 -0.112,-0.178 -0.114,-0.226 -0.118,-0.295 -0.367,-0.669 -0.518,-0.835 -0.552,-0.872 -0.62,-1.004 -0.67,-1.13 c -0.049,-0.127 -0.177,-0.338 -0.291,-0.479 -0.115,-0.143 -0.206,-0.286 -0.208,-0.324 -0.002,-0.041 -0.062,-0.139 -0.136,-0.226 -0.151,-0.172 -0.194,-0.428 -0.087,-0.502 0.034,-0.023 0.121,0.006 0.196,0.066 0.142,0.115 0.375,0.456 0.313,0.459 -0.033,0.002 0.851,1.546 0.949,1.658 0.03,0.033 0.322,0.523 0.648,1.09 0.328,0.57 0.627,1.088 0.668,1.156 0.04,0.07 0.165,0.294 0.274,0.501 0.111,0.208 0.282,0.487 0.383,0.624 0.102,0.139 0.258,0.399 0.347,0.588 0.103,0.212 0.286,0.541 0.476,0.865 l 0.03,0.569 C 2.645,4.53 2.319,3.99 2.167,3.716 1.593,2.684 0.106,0.136 0,0"
       style="fill:#f7ebd8;fill-opacity:1;fill-rule:nonzero;stroke:none"
       transform="matrix(0.35277776,0,0,-0.35277776,32.497959,120.39288)"
       clip-path="url(#clipPath30)" />
    <path
       id="path31"
       d="M 0,0 C -0.003,-0.051 0.023,-0.109 0.058,-0.134 0.157,-0.202 1.291,-0.218 1.389,-0.151 1.561,-0.03 1.385,0.024 0.706,0.055 0.152,0.082 0.004,0.071 0,0"
       style="fill:#f7ebd8;fill-opacity:1;fill-rule:nonzero;stroke:none"
       transform="matrix(0.35277776,0,0,-0.35277776,32.720915,115.39656)"
       clip-path="url(#clipPath32)" />
    <path
       id="path33"
       d="m 0,0 c 0.027,-0.017 0.191,-0.043 0.371,-0.06 0.384,-0.034 0.636,-0.077 0.91,-0.151 0.116,-0.031 0.205,-0.03 0.206,0.002 C 1.493,-0.074 1.373,0.025 1.174,0.05 1.053,0.064 0.768,0.109 0.539,0.146 0.201,0.203 0.105,0.199 0.035,0.124 -0.009,0.075 -0.027,0.017 0,0"
       style="fill:#f7ebd8;fill-opacity:1;fill-rule:nonzero;stroke:none"
       transform="matrix(0.35277776,0,0,-0.35277776,32.769915,114.75817)"
       clip-path="url(#clipPath34)" />
    <path
       id="path35"
       d="m 0,0 c -0.496,-0.02 -0.772,-0.18 -0.511,-0.296 0.053,-0.023 0.277,-0.007 0.504,0.038 0.228,0.043 0.491,0.064 0.595,0.045 0.223,-0.041 0.36,-0.002 0.366,0.108 C 0.959,-0.003 0.757,0.063 0.524,0.036 0.427,0.025 0.194,0.01 0,0"
       style="fill:#f7ebd8;fill-opacity:1;fill-rule:nonzero;stroke:none"
       transform="matrix(0.35277776,0,0,-0.35277776,33.116343,115.69254)"
       clip-path="url(#clipPath36)" />
    <path
       id="path37"
       d="m 0,0 c -0.055,-0.145 -0.197,-0.299 -0.273,-0.295 -0.064,0.003 -0.223,-0.201 -0.232,-0.297 -0.002,-0.046 0.035,-0.101 0.084,-0.124 0.052,-0.022 0.14,0.002 0.199,0.058 0.058,0.051 0.161,0.132 0.223,0.172 C 0.2,-0.353 0.367,-0.041 0.286,0.05 0.176,0.171 0.056,0.15 0,0"
       style="fill:#f7ebd8;fill-opacity:1;fill-rule:nonzero;stroke:none"
       transform="matrix(0.35277776,0,0,-0.35277776,32.993506,118.19603)"
       clip-path="url(#clipPath38)" />
    <path
       id="path39"
       d="M 0,0 C 0.003,0.052 -0.095,0.356 -0.215,0.672 -0.423,1.223 -0.532,1.678 -0.493,1.85 -0.467,1.969 -0.777,1.962 -0.83,1.842 -0.891,1.702 -0.886,1.62 -0.788,1.363 -0.739,1.238 -0.653,1.016 -0.594,0.871 -0.41,0.423 -0.148,-0.37 -0.152,-0.458 -0.155,-0.503 -0.107,-0.653 -0.051,-0.785 0.007,-0.919 0.198,-1.487 0.372,-2.043 0.435,-2.25 0.492,-2.435 0.545,-2.601 L 0.59,-1.744 C 0.35,-1.001 0.157,-0.449 0.045,-0.204 0.018,-0.146 -0.003,-0.049 0,0"
       style="fill:#f7ebd8;fill-opacity:1;fill-rule:nonzero;stroke:none"
       transform="matrix(0.35277776,0,0,-0.35277776,33.708445,110.3644)"
       clip-path="url(#clipPath40)" />
    <path
       id="path41"
       d="M 0,0 C -0.249,-0.064 -0.329,-0.216 -0.156,-0.289 -0.034,-0.344 0.277,-0.235 0.695,0.008 1.186,0.296 1.224,0.329 1.134,0.392 1.046,0.454 0.831,0.388 0.479,0.193 0.351,0.122 0.137,0.036 0,0"
       style="fill:#f7ebd8;fill-opacity:1;fill-rule:nonzero;stroke:none"
       transform="matrix(0.35277776,0,0,-0.35277776,33.147176,116.67901)"
       clip-path="url(#clipPath42)" />
    <path
       id="path43"
       d="M 0,0 C 0.051,-0.16 0.202,-0.08 0.59,0.31 0.821,0.544 1.059,0.728 1.259,0.834 L 1.268,1.011 C 1.202,0.984 1.134,0.957 1.061,0.924 0.691,0.769 -0.04,0.13 0,0"
       style="fill:#f7ebd8;fill-opacity:1;fill-rule:nonzero;stroke:none"
       transform="matrix(0.35277776,0,0,-0.35277776,33.163862,117.21996)"
       clip-path="url(#clipPath44)" />
    <path
       id="path45"
       d="m 0,0 c -0.001,-0.027 -0.122,-0.164 -0.273,-0.311 -0.152,-0.145 -0.271,-0.269 -0.271,-0.278 0,-0.009 0.051,-0.069 0.112,-0.131 0.106,-0.109 0.13,-0.093 0.46,0.314 C 0.324,-0.042 0.365,0.04 0.303,0.136 0.237,0.243 0.225,0.243 0.118,0.15 0.058,0.096 0.001,0.027 0,0"
       style="fill:#f7ebd8;fill-opacity:1;fill-rule:nonzero;stroke:none"
       transform="matrix(0.35277776,0,0,-0.35277776,33.39532,117.70997)"
       clip-path="url(#clipPath46)" />
    <path
       id="path47"
       d="M 0,0 C -0.006,-0.028 -0.019,-0.099 -0.033,-0.163 -0.052,-0.239 -0.021,-0.275 0.069,-0.28 0.139,-0.284 0.38,-0.37 0.6,-0.473 0.619,-0.481 0.64,-0.49 0.661,-0.499 l 0.015,0.3 C 0.644,-0.182 0.611,-0.164 0.579,-0.146 0.279,0.027 0.016,0.094 0,0"
       style="fill:#f7ebd8;fill-opacity:1;fill-rule:nonzero;stroke:none"
       transform="matrix(0.35277776,0,0,-0.35277776,33.491029,114.51042)"
       clip-path="url(#clipPath48)" />
    <path
       id="path49"
       d="M 0,0 C 0.186,-0.292 0.338,-0.367 0.411,-0.201 0.466,-0.082 0.001,0.466 -0.105,0.407 -0.207,0.352 -0.196,0.312 0,0"
       style="fill:#f7ebd8;fill-opacity:1;fill-rule:nonzero;stroke:none"
       transform="matrix(0.35277776,0,0,-0.35277776,33.625966,113.29178)"
       clip-path="url(#clipPath50)" />
    <path
       id="path51"
       d="m 0,0 c -0.027,0.014 -0.045,0.056 -0.044,0.102 0.001,0.122 -0.229,0.384 -0.302,0.342 -0.078,-0.043 -0.083,-0.349 -0.007,-0.353 0.032,-0.002 0.051,-0.027 0.048,-0.066 -0.002,-0.037 0.035,-0.115 0.089,-0.181 0.046,-0.062 0.127,-0.179 0.17,-0.244 0.05,-0.08 0.121,-0.114 0.192,-0.091 0.004,0.001 0.006,0.003 0.011,0.003 l 0.011,0.216 C 0.162,-0.261 0.158,-0.252 0.152,-0.24 0.094,-0.122 0.026,-0.014 0,0"
       style="fill:#f7ebd8;fill-opacity:1;fill-rule:nonzero;stroke:none"
       transform="matrix(0.35277776,0,0,-0.35277776,33.767994,112.60524)"
       clip-path="url(#clipPath52)" />
    <path
       id="path53"
       d="M 0,0 C 0.03,-0.022 0.188,0.014 0.369,0.081 L 0.386,0.407 C 0.234,0.359 0.092,0.304 0.04,0.268 -0.06,0.2 -0.082,0.057 0,0"
       style="fill:#f7ebd8;fill-opacity:1;fill-rule:nonzero;stroke:none"
       transform="matrix(0.35277776,0,0,-0.35277776,33.522355,116.0958)"
       clip-path="url(#clipPath54)" />
    <path
       id="path55"
       d="M 0,0 C -0.017,-0.063 -0.02,-0.115 -0.009,-0.12 0,-0.122 0.16,-0.147 0.34,-0.17 0.357,-0.173 0.377,-0.176 0.398,-0.179 L 0.411,0.075 C 0.393,0.076 0.377,0.079 0.361,0.081 0.085,0.106 0.024,0.091 0,0"
       style="fill:#f7ebd8;fill-opacity:1;fill-rule:nonzero;stroke:none"
       transform="matrix(0.35277776,0,0,-0.35277776,33.567758,114.93537)"
       clip-path="url(#clipPath56)" />
    <path
       id="path57"
       d="M 0,0 C -0.002,-0.037 0.035,-0.077 0.095,-0.107 L 0.103,0.052 C 0.041,0.041 0.001,0.022 0,0"
       style="fill:#f7ebd8;fill-opacity:1;fill-rule:nonzero;stroke:none"
       transform="matrix(0.35277776,0,0,-0.35277776,33.651719,115.39719)"
       clip-path="url(#clipPath58)" />
  </g>
</svg>
