<?xml version="1.0" encoding="UTF-8" standalone="no"?>
<!-- Created with Inkscape (http://www.inkscape.org/) -->

<svg
   width="4.8951468mm"
   height="2.159869mm"
   viewBox="0 0 4.8951468 2.159869"
   version="1.1"
   id="svg1"
   xmlns="http://www.w3.org/2000/svg"
   xmlns:svg="http://www.w3.org/2000/svg">
  <defs
     id="defs1">
    <clipPath
       clipPathUnits="userSpaceOnUse"
       id="clipPath6775">
      <path
         d="M 0,1440 H 251.455 V 0 H 0 Z"
         transform="translate(-142.72341,-495.47064)"
         id="path6775" />
    </clipPath>
  </defs>
  <g
     id="layer1"
     transform="translate(-89.429172,-43.656242)">
    <path
       id="path6774"
       d="M 0,0 C -0.302,-0.005 -0.349,0.006 -0.474,-0.01 -0.496,-0.013 -0.55,-0.022 -0.547,-0.005 -0.457,0.47 -0.47,0.85 -0.387,0.883 -0.3,0.916 -0.142,0.521 0,0 m 0.395,-1.496 c -0.262,0.021 -0.228,0.599 -0.31,1.008 -0.212,0.013 -0.581,-0.058 -0.711,0 -0.081,-0.621 -0.076,-0.615 -0.118,-0.909 -0.035,-0.245 -0.383,-0.232 -0.365,0.03 0,0.002 0.351,2.321 0.439,2.909 0.018,0.122 0.189,0.222 0.307,0.229 0.19,0.044 0.569,-1.122 0.789,-1.954 C 0.529,-0.575 0.572,-0.912 0.59,-0.979 0.643,-1.182 0.602,-1.514 0.395,-1.496 M -4.337,0 C -4.638,-0.005 -4.686,0.006 -4.81,-0.01 -4.833,-0.013 -4.887,-0.022 -4.884,-0.005 -4.794,0.47 -4.806,0.85 -4.723,0.883 -4.637,0.916 -4.479,0.521 -4.337,0 m 2.806,1.304 c -0.068,-0.525 -0.264,-2.668 -0.313,-2.74 -0.07,-0.102 -0.318,-0.1 -0.375,-0.041 -0.049,0.053 -0.596,1.694 -0.613,1.742 -0.025,0.071 -0.058,0.065 -0.063,0.017 -0.01,-0.091 0.009,-0.458 0.006,-1.007 -0.002,-0.314 -0.009,-0.611 -0.05,-0.718 -0.042,-0.11 -0.216,-0.114 -0.295,-0.03 -0.126,0.133 -0.063,0.142 -0.031,1.177 0.019,0.635 -0.003,0.634 -0.016,1.841 -0.003,0.243 0.147,0.322 0.295,0.232 0.076,-0.038 0.124,-0.129 0.217,-0.407 0.798,-2.457 0.564,-2.249 0.752,-0.708 0.07,0.575 0.028,1.044 0.277,1.109 0.342,0.107 0.226,-0.329 0.209,-0.467 m -2.41,-2.8 c -0.262,0.021 -0.229,0.599 -0.311,1.008 -0.211,0.013 -0.581,-0.058 -0.711,0 -0.08,-0.621 -0.075,-0.615 -0.117,-0.909 -0.035,-0.245 -0.384,-0.232 -0.365,0.03 0,0.002 0.35,2.321 0.438,2.909 0.018,0.122 0.19,0.222 0.308,0.229 0.19,0.044 0.568,-1.122 0.788,-1.954 0.104,-0.392 0.146,-0.729 0.164,-0.796 0.053,-0.203 0.013,-0.535 -0.194,-0.517 m -2.203,0.122 c -0.33,-0.262 -0.948,-0.064 -1.095,0.222 -0.378,0.741 -0.249,2.266 0.469,2.741 0.074,0.048 0.233,0.18 0.313,0.206 0.081,0.025 0.323,0.165 0.434,0.125 0.03,-0.011 0.104,-0.07 0.12,-0.11 0.134,-0.35 -0.892,-0.355 -1.031,-1.386 -0.123,-0.904 -0.025,-1.026 0.061,-1.279 0.048,-0.139 0.326,-0.257 0.5,-0.151 0.136,0.08 0.189,0.292 0.215,0.477 0.015,0.112 0.072,0.3 -0.08,0.354 -0.094,0.034 -0.226,0.103 -0.241,0.19 -0.018,0.101 -0.019,0.2 0.103,0.251 0.228,0.094 0.544,0.035 0.596,-0.205 0.076,-0.351 0.119,-1.053 -0.364,-1.435 m -2.481,-0.109 c -0.531,0.02 -0.416,0.298 -0.37,1.927 0.014,0.51 0.024,0.837 0.063,1.009 0.068,0.293 0.443,0.369 0.803,0.341 0.341,-0.03 0.286,-0.511 0.013,-0.488 C -8.179,1.311 -8.243,1.317 -8.307,1.311 -8.502,1.279 -8.476,1.291 -8.489,1.198 -8.5,1.085 -8.542,0.621 -8.566,0.205 c 0.11,0.019 0.3,0.02 0.412,0.02 0.139,-0.001 0.253,-0.088 0.253,-0.247 -0.002,-0.412 -0.372,-0.224 -0.643,-0.272 -0.059,-0.011 -0.033,0.047 -0.059,-0.78 0.224,-0.016 0.838,0.123 0.838,-0.216 0,-0.214 -0.514,-0.206 -0.86,-0.193 m -0.91,2.308 c -0.213,-1.073 -0.277,-1.753 -0.419,-2.132 -0.077,-0.207 -0.374,-0.195 -0.441,-0.083 -0.07,0.117 -0.419,1.386 -0.671,2.994 -0.018,0.116 0.173,0.224 0.285,0.222 0.259,-0.006 0.133,-0.493 0.472,-1.742 0.086,-0.318 0.084,-0.475 0.128,-0.456 0.051,0.023 0.258,1.982 0.51,2.113 0.118,0.061 0.255,0.065 0.289,-0.031 C -9.299,1.48 -9.425,1.363 -9.535,0.825 M 1.538,1.353 0.906,2.298 c -0.347,0.517 -1.71,0.658 -1.71,0.658 0,0 -1.266,0.188 -1.432,0.202 L -5.189,3.085 c -0.055,0.005 -0.791,0.08 -1.639,0.08 0,0 -4.155,0.131 -4.821,-0.619 -0.133,-0.149 -0.213,-0.239 -0.256,-0.287 -0.14,-0.21 -0.216,-0.45 -0.216,-0.697 v -1.923 c 0,-0.16 0.032,-0.319 0.094,-0.47 l 0.322,-0.778 c 0.162,-0.391 0.518,-0.698 0.969,-0.836 l 1.38,-0.424 c 0.212,-0.066 0.438,-0.091 0.662,-0.075 0.844,0.06 3.001,0.217 3.511,0.279 0.552,0.067 2.548,0.198 3.071,0.271 0.084,0.012 0.169,0.018 0.254,0.018 l 2.018,0.149 c 0.57,0 1.097,0.265 1.382,0.694 0.139,0.211 0.213,0.449 0.213,0.692 v 1.497 c 0,0.245 -0.075,0.485 -0.217,0.697"
       style="fill:#00657c;fill-opacity:1;fill-rule:nonzero;stroke:none"
       transform="matrix(0.35277776,0,0,-0.35277776,93.705185,44.77588)"
       clip-path="url(#clipPath6775)" />
  </g>
</svg>
