<?xml version="1.0" encoding="UTF-8" standalone="no"?>
<!-- Created with Inkscape (http://www.inkscape.org/) -->

<svg
   width="4.8951468mm"
   height="2.159869mm"
   viewBox="0 0 4.8951468 2.159869"
   version="1.1"
   id="svg1"
   xmlns="http://www.w3.org/2000/svg"
   xmlns:svg="http://www.w3.org/2000/svg">
  <defs
     id="defs1">
    <clipPath
       clipPathUnits="userSpaceOnUse"
       id="clipPath6775">
      <path
         d="M 0,1440 H 251.455 V 0 H 0 Z"
         transform="translate(-142.72341,-495.47064)"
         id="path6775" />
    </clipPath>
  </defs>
  <g
     id="layer1"
     transform="translate(-89.429172,-43.656242)"
     style="fill:#00c9c9;fill-opacity:1;stroke:#000000;stroke-width:0.03;stroke-dasharray:none;stroke-opacity:1">
    <path
       id="path6774"
       d="M 0,0 C -0.302,-0.005 -0.349,0.006 -0.474,-0.01 -0.496,-0.013 -0.55,-0.022 -0.547,-0.005 -0.457,0.47 -0.47,0.85 -0.387,0.883 -0.3,0.916 -0.142,0.521 0,0 m 0.395,-1.496 c -0.262,0.021 -0.228,0.599 -0.31,1.008 -0.212,0.013 -0.581,-0.058 -0.711,0 -0.081,-0.621 -0.076,-0.615 -0.118,-0.909 -0.035,-0.245 -0.383,-0.232 -0.365,0.03 0,0.002 0.351,2.321 0.439,2.909 0.018,0.122 0.189,0.222 0.307,0.229 0.19,0.044 0.569,-1.122 0.789,-1.954 C 0.529,-0.575 0.572,-0.912 0.59,-0.979 0.643,-1.182 0.602,-1.514 0.395,-1.496 M -4.337,0 C -4.638,-0.005 -4.686,0.006 -4.81,-0.01 -4.833,-0.013 -4.887,-0.022 -4.884,-0.005 -4.794,0.47 -4.806,0.85 -4.723,0.883 -4.637,0.916 -4.479,0.521 -4.337,0 m 2.806,1.304 c -0.068,-0.525 -0.264,-2.668 -0.313,-2.74 -0.07,-0.102 -0.318,-0.1 -0.375,-0.041 -0.049,0.053 -0.596,1.694 -0.613,1.742 -0.025,0.071 -0.058,0.065 -0.063,0.017 -0.01,-0.091 0.009,-0.458 0.006,-1.007 -0.002,-0.314 -0.009,-0.611 -0.05,-0.718 -0.042,-0.11 -0.216,-0.114 -0.295,-0.03 -0.126,0.133 -0.063,0.142 -0.031,1.177 0.019,0.635 -0.003,0.634 -0.016,1.841 -0.003,0.243 0.147,0.322 0.295,0.232 0.076,-0.038 0.124,-0.129 0.217,-0.407 0.798,-2.457 0.564,-2.249 0.752,-0.708 0.07,0.575 0.028,1.044 0.277,1.109 0.342,0.107 0.226,-0.329 0.209,-0.467 m -2.41,-2.8 c -0.262,0.021 -0.229,0.599 -0.311,1.008 -0.211,0.013 -0.581,-0.058 -0.711,0 -0.08,-0.621 -0.075,-0.615 -0.117,-0.909 -0.035,-0.245 -0.384,-0.232 -0.365,0.03 0,0.002 0.35,2.321 0.438,2.909 0.018,0.122 0.19,0.222 0.308,0.229 0.19,0.044 0.568,-1.122 0.788,-1.954 0.104,-0.392 0.146,-0.729 0.164,-0.796 0.053,-0.203 0.013,-0.535 -0.194,-0.517 m -2.203,0.122 c -0.33,-0.262 -0.948,-0.064 -1.095,0.222 -0.378,0.741 -0.249,2.266 0.469,2.741 0.074,0.048 0.233,0.18 0.313,0.206 0.081,0.025 0.323,0.165 0.434,0.125 0.03,-0.011 0.104,-0.07 0.12,-0.11 0.134,-0.35 -0.892,-0.355 -1.031,-1.386 -0.123,-0.904 -0.025,-1.026 0.061,-1.279 0.048,-0.139 0.326,-0.257 0.5,-0.151 0.136,0.08 0.189,0.292 0.215,0.477 0.015,0.112 0.072,0.3 -0.08,0.354 -0.094,0.034 -0.226,0.103 -0.241,0.19 -0.018,0.101 -0.019,0.2 0.103,0.251 0.228,0.094 0.544,0.035 0.596,-0.205 0.076,-0.351 0.119,-1.053 -0.364,-1.435 m -2.481,-0.109 c -0.531,0.02 -0.416,0.298 -0.37,1.927 0.014,0.51 0.024,0.837 0.063,1.009 0.068,0.293 0.443,0.369 0.803,0.341 0.341,-0.03 0.286,-0.511 0.013,-0.488 C -8.179,1.311 -8.243,1.317 -8.307,1.311 -8.502,1.279 -8.476,1.291 -8.489,1.198 -8.5,1.085 -8.542,0.621 -8.566,0.205 c 0.11,0.019 0.3,0.02 0.412,0.02 0.139,-0.001 0.253,-0.088 0.253,-0.247 -0.002,-0.412 -0.372,-0.224 -0.643,-0.272 -0.059,-0.011 -0.033,0.047 -0.059,-0.78 0.224,-0.016 0.838,0.123 0.838,-0.216 0,-0.214 -0.514,-0.206 -0.86,-0.193 m -0.91,2.308 c -0.213,-1.073 -0.277,-1.753 -0.419,-2.132 -0.077,-0.207 -0.374,-0.195 -0.441,-0.083 -0.07,0.117 -0.419,1.386 -0.671,2.994 -0.018,0.116 0.173,0.224 0.285,0.222 0.259,-0.006 0.133,-0.493 0.472,-1.742 0.086,-0.318 0.084,-0.475 0.128,-0.456 0.051,0.023 0.258,1.982 0.51,2.113 0.118,0.061 0.255,0.065 0.289,-0.031 C -9.299,1.48 -9.425,1.363 -9.535,0.825 M 1.538,1.353 0.906,2.298 c -0.347,0.517 -1.71,0.658 -1.71,0.658 0,0 -1.266,0.188 -1.432,0.202 L -5.189,3.085 c -0.055,0.005 -0.791,0.08 -1.639,0.08 0,0 -4.155,0.131 -4.821,-0.619 -0.133,-0.149 -0.213,-0.239 -0.256,-0.287 -0.14,-0.21 -0.216,-0.45 -0.216,-0.697 v -1.923 c 0,-0.16 0.032,-0.319 0.094,-0.47 l 0.322,-0.778 c 0.162,-0.391 0.518,-0.698 0.969,-0.836 l 1.38,-0.424 c 0.212,-0.066 0.438,-0.091 0.662,-0.075 0.844,0.06 3.001,0.217 3.511,0.279 0.552,0.067 2.548,0.198 3.071,0.271 0.084,0.012 0.169,0.018 0.254,0.018 l 2.018,0.149 c 0.57,0 1.097,0.265 1.382,0.694 0.139,0.211 0.213,0.449 0.213,0.692 v 1.497 c 0,0.245 -0.075,0.485 -0.217,0.697"
       style="fill:#00c9c9;fill-opacity:1;fill-rule:nonzero;stroke:#000000;stroke-width:0.0850394;stroke-dasharray:none;stroke-opacity:1"
       transform="matrix(0.35277776,0,0,-0.35277776,93.705185,44.77588)"
       clip-path="url(#clipPath6775)" />
  </g>
  <path
     style="fill:#ffffff;fill-opacity:1;stroke:#000000;stroke-width:0.000662914;stroke-dasharray:none;stroke-opacity:1"
     d="M 0.65049899,1.6158876 C 0.63897586,1.6125591 0.62822727,1.6039535 0.62302307,1.5938897 0.60008592,1.5495342 0.52534978,1.2570379 0.47420262,1.0114481 0.44216007,0.85759157 0.39171689,0.57688328 0.39171689,0.55242801 c 0,-0.0237154 0.045561,-0.058397 0.0767157,-0.058397 0.0336818,0 0.043563,0.0277704 0.06969,0.19585847 0.021668,0.13940105 0.0441103,0.25026188 0.0787063,0.38879362 0.0140531,0.056273 0.0285834,0.1176774 0.0322895,0.1364547 0.007986,0.040466 0.0235572,0.059847 0.0407066,0.050669 0.0152014,-0.00814 0.0187933,-0.02349 0.0492684,-0.2105995 0.0532402,-0.32688355 0.0920076,-0.48805731 0.12622828,-0.52478892 0.006437,-0.00691 0.0224348,-0.0154524 0.03555,-0.0189839 0.0515641,-0.0138848 0.0689318,0.0267234 0.0466619,0.10910199 -0.0535469,0.19807497 -0.0642859,0.24959839 -0.12045285,0.57790083 -0.0603501,0.3527535 -0.0759617,0.402842 -0.13025874,0.4179226 -0.0118518,0.00329 -0.0228642,0.00576 -0.0244718,0.00549 -0.001609,-2.725e-4 -0.0114406,-0.00295 -0.021851,-0.00596 z"
     id="path1" />
  <path
     style="fill:#ffffff;fill-opacity:1;stroke:#000000;stroke-width:0.000662914;stroke-dasharray:none;stroke-opacity:1"
     d="M 0.6375275,1.6001797 C 0.61907398,1.5817261 0.60548903,1.5412177 0.56446917,1.3823303 0.48917261,1.0906745 0.3894378,0.58470474 0.39948696,0.54535093 c 0.008337,-0.0326488 0.0732058,-0.0588923 0.0913953,-0.0369753 0.0120094,0.0144706 0.0232034,0.0603221 0.0414418,0.16975206 0.009653,0.0579184 0.0241787,0.1395082 0.0322792,0.18131083 0.0155639,0.0803183 0.0816847,0.36345488 0.0899612,0.38522368 0.0123695,0.032535 0.0420286,0.033569 0.052432,0.00183 0.003375,-0.010297 0.020515,-0.1029118 0.0380886,-0.2058105 0.0622668,-0.36458804 0.0945199,-0.48862757 0.1337355,-0.51432263 0.0408499,-0.0267659 0.0742068,-0.0117109 0.0741079,0.033447 -2.995e-5,0.0136662 -0.009347,0.0603653 -0.020705,0.10377574 -0.0353713,0.13519179 -0.0541446,0.22587752 -0.0964979,0.46613939 -0.0726826,0.4123141 -0.0842641,0.4553037 -0.12887439,0.4783726 -0.026105,0.013499 -0.0507215,0.01069 -0.0693236,-0.00791 z"
     id="path2" />
  <path
     style="fill:#ffffff;fill-opacity:1;stroke:#000000;stroke-width:0.000662914;stroke-dasharray:none;stroke-opacity:1"
     d="m 1.2131531,1.6223463 c -0.0451,-0.00554 -0.062762,-0.012869 -0.07814,-0.032419 -0.022194,-0.028214 -0.026598,-0.057887 -0.026854,-0.1809155 -4.461e-4,-0.2144874 0.020948,-0.73268333 0.032467,-0.78639372 0.016889,-0.07875 0.087407,-0.11707323 0.2165048,-0.11766034 0.070178,-3.2014e-4 0.092568,0.007119 0.1073241,0.0356544 0.016527,0.0319598 0.00636,0.0794343 -0.02004,0.0935624 -0.00619,0.003311 -0.034442,0.006083 -0.06279,0.006159 -0.062156,1.6819e-4 -0.095143,0.007063 -0.1076483,0.0224983 -0.00984,0.012151 -0.010636,0.0188277 -0.025402,0.21414629 -0.00486,0.0643117 -0.010145,0.13366797 -0.01174,0.15412497 l -0.0029,0.037195 0.030535,-0.00361 c 0.016794,-0.00198 0.058238,-0.00396 0.092096,-0.00439 0.089546,-0.00114 0.1135326,0.014259 0.112216,0.072058 -0.00142,0.06241 -0.029014,0.079091 -0.1190372,0.071966 -0.069438,-0.0055 -0.1096012,3.175e-4 -0.1156557,0.016741 -0.00255,0.00691 -0.00626,0.076268 -0.00825,0.1541392 l -0.00362,0.1415844 0.1182403,-0.00127 c 0.108034,-0.00116 0.1202589,-2.585e-4 0.1416264,0.010425 0.025712,0.012856 0.040869,0.037299 0.034863,0.056221 -0.011304,0.035616 -0.1700625,0.056615 -0.3038035,0.040183 z"
     id="path3" />
  <path
     style="fill:#ffffff;fill-opacity:1;stroke:#000000;stroke-width:0.000662914;stroke-dasharray:none;stroke-opacity:1"
     d="M 1.8958639,1.6201791 C 1.8223132,1.6015779 1.7598196,1.5575043 1.7337036,1.5058161 1.7147156,1.4682354 1.6919621,1.3933269 1.680061,1.3292154 1.664783,1.2469134 1.666264,1.0694477 1.683001,0.97696299 1.706305,0.84818621 1.754955,0.72935779 1.8163903,0.65116085 c 0.024043,-0.0306025 0.07818,-0.075763 0.1530206,-0.12764804 0.02732,-0.0189401 0.1406285,-0.0644423 0.1606346,-0.0645073 0.017953,-5.829e-5 0.050707,0.0276511 0.050707,0.0428969 0,0.0168997 -0.029936,0.0440373 -0.097988,0.0888279 -0.037751,0.0248469 -0.085058,0.0584208 -0.1051276,0.0746088 -0.072501,0.0584796 -0.1297406,0.1478021 -0.152937,0.23866068 -0.028965,0.11345431 -0.040792,0.35137471 -0.021272,0.42792461 0.031405,0.1231593 0.069087,0.165431 0.1535099,0.1722076 0.1022871,0.00821 0.1573562,-0.070258 0.169436,-0.2414297 0.00449,-0.063671 -0.00381,-0.079718 -0.052681,-0.1017622 -0.047209,-0.021297 -0.068337,-0.042575 -0.068337,-0.068822 0,-0.011027 0.00255,-0.024822 0.00568,-0.030656 0.0088,-0.01644 0.051603,-0.030824 0.092024,-0.030923 0.041577,-1.025e-4 0.084499,0.017739 0.1025287,0.042618 0.025113,0.034653 0.036343,0.1997284 0.019531,0.287107 -0.022378,0.1163064 -0.088951,0.2174347 -0.1658712,0.2519691 -0.034189,0.015349 -0.1179936,0.019425 -0.1633813,0.00795 z"
     id="path4" />
  <path
     style="fill:#ffffff;fill-opacity:1;stroke:#000000;stroke-width:0.000662914;stroke-dasharray:none;stroke-opacity:1"
     d="m 2.388038,1.6431381 c -0.00789,-0.00789 -0.01435,-0.021018 -0.01435,-0.029167 0,-0.033453 0.1528029,-1.03077322 0.1605527,-1.04790163 0.00854,-0.0188665 0.045363,-0.0445761 0.0739,-0.0515917 0.012369,-0.003041 0.018174,-2.1381e-4 0.031092,0.0151381 0.073476,0.0873218 0.2266879,0.55421333 0.2837791,0.86477883 0.020786,0.1130707 0.022484,0.1674076 0.00634,0.2029603 -0.018978,0.041807 -0.05943,0.040569 -0.081069,-0.00248 -0.016042,-0.031913 -0.022833,-0.066112 -0.039182,-0.1972302 -0.00901,-0.072237 -0.017306,-0.1183642 -0.021812,-0.1212257 -0.00944,-0.006 -0.00814,-0.00601 -0.1242042,0.00162 -0.086554,0.00569 -0.1027583,0.00536 -0.1254711,-0.00261 -0.014344,-0.00503 -0.026457,-0.0086 -0.026916,-0.00794 -4.577e-4,6.616e-4 -0.010663,0.078743 -0.022675,0.1735138 -0.0123,0.097046 -0.025565,0.179514 -0.030368,0.1888014 -0.015068,0.029139 -0.047587,0.035365 -0.069622,0.013331 z m 0.2911302,-0.505939 c 0.057143,-4.23e-5 0.068697,-0.00153 0.068697,-0.00882 0,-0.00482 0.00395,-0.00877 0.00877,-0.00877 0.00482,0 0.00876,-6.588e-4 0.00875,-0.00146 -9.34e-5,-0.00629 -0.049201,-0.1597513 -0.061809,-0.19315759 -0.03677,-0.0974276 -0.063723,-0.13523007 -0.093952,-0.13177231 -0.026839,0.00307 -0.034914,0.0287565 -0.052063,0.1656113 -0.00846,0.0675273 -0.016833,0.1342305 -0.018604,0.1482292 -0.00403,0.031881 0.00317,0.037561 0.042287,0.033343 0.016078,-0.00173 0.060146,-0.00317 0.097929,-0.0032 z"
     id="path5" />
  <path
     style="fill:#ffffff;fill-opacity:1;stroke:#000000;stroke-width:0.000662914;stroke-dasharray:none;stroke-opacity:1"
     d="m 3.1483236,1.6258363 c -0.00776,-0.00776 -0.015994,-0.021574 -0.018291,-0.030694 -0.0023,-0.00912 -0.00106,-0.081039 0.00274,-0.1598211 0.011761,-0.2434058 0.013433,-0.3680466 0.00835,-0.6226545 -0.0027,-0.13505463 -0.00268,-0.25603874 3.94e-5,-0.2688536 0.00654,-0.0308228 0.019291,-0.0439353 0.042726,-0.0439353 0.028527,0 0.051329,0.0228328 0.071722,0.0718203 0.00971,0.0233206 0.046948,0.13575098 0.082756,0.24984543 0.1488765,0.47437167 0.1487564,0.47402787 0.1694725,0.48511487 0.00902,0.00483 0.013875,0.00378 0.022545,-0.00489 0.013047,-0.013047 0.015626,-0.02878 0.027475,-0.1675407 0.00494,-0.057881 0.01284,-0.14047162 0.017552,-0.18353565 0.00471,-0.043064 0.013727,-0.13394163 0.020032,-0.20195026 0.0131,-0.14128935 0.018709,-0.17230693 0.037077,-0.20501274 0.014219,-0.0253182 0.047512,-0.0415599 0.072391,-0.0353158 0.026239,0.006585 0.028065,0.0350836 0.011105,0.17324826 -0.00845,0.0688385 -0.028482,0.25276127 -0.044515,0.40871719 -0.039188,0.3811836 -0.056946,0.5211214 -0.067489,0.5318434 -0.00525,0.00534 -0.02368,0.00944 -0.048797,0.01086 -0.037254,0.00211 -0.041038,0.00122 -0.049173,-0.011503 C 3.4946926,1.6038218 3.4603999,1.5083716 3.3670933,1.2348142 3.3256399,1.1132808 3.2889708,1.0087012 3.2856066,1.0024149 c -0.00735,-0.0137268 -0.030521,-0.0150267 -0.04108,-0.0023 -0.00597,0.00719 -0.00731,0.058343 -0.00633,0.241169 0.00132,0.2485013 -0.00442,0.3615899 -0.019563,0.384694 -0.012912,0.019708 -0.050533,0.019634 -0.070304,-1.372e-4 z"
     id="path6" />
  <path
     style="fill:#ffffff;fill-opacity:1;stroke:#000000;stroke-width:0.000662914;stroke-dasharray:none;stroke-opacity:1"
     d="m 3.9208807,1.6453713 c -0.012242,-0.00963 -0.015404,-0.017123 -0.015404,-0.036495 0,-0.032921 0.1514073,-1.03263712 0.1583608,-1.04563018 0.00813,-0.0151932 0.040241,-0.0375408 0.065635,-0.0456797 0.029546,-0.00947 0.036428,-0.002925 0.074154,0.0705219 0.060721,0.11821019 0.1486389,0.37920763 0.2099847,0.62336588 0.026027,0.1035853 0.058977,0.2813693 0.058977,0.3182048 0,0.096415 -0.060812,0.1329767 -0.098741,0.059366 -0.010157,-0.019712 -0.022527,-0.087867 -0.035694,-0.1966565 -0.00656,-0.054172 -0.0146,-0.1035022 -0.017875,-0.1096223 -0.00705,-0.013176 -4.498e-4,-0.012928 -0.1253974,-0.00471 -0.086555,0.00569 -0.1027591,0.00536 -0.125472,-0.00261 -0.014346,-0.00503 -0.026858,-0.00837 -0.027807,-0.00742 -9.525e-4,9.499e-4 -0.010975,0.073841 -0.022281,0.161982 -0.026268,0.2048035 -0.024357,0.1957139 -0.04479,0.212908 -0.021101,0.017754 -0.033489,0.018323 -0.053648,0.00247 z M 4.213276,1.1371483 c 0.053369,0 0.066377,-0.00162 0.066377,-0.00828 0,-0.00456 0.00319,-0.00935 0.0071,-0.010648 C 4.299286,1.1140403 4.241787,0.93251602 4.203356,0.8549332 4.180657,0.8091094 4.164952,0.7922058 4.145074,0.7922058 c -0.032956,0 -0.039046,0.0184904 -0.058735,0.17831887 -0.00673,0.054665 -0.014668,0.11227053 -0.017634,0.12801243 -0.00761,0.040418 -9.525e-4,0.046885 0.043555,0.042234 0.019053,-0.00199 0.064512,-0.00362 0.1010195,-0.00362 z"
     id="path7" />
</svg>
