<?xml version="1.0" encoding="UTF-8" standalone="no"?>
<!-- Created with Inkscape (http://www.inkscape.org/) -->

<svg
   width="3.7488236mm"
   height="3.1400394mm"
   viewBox="0 0 3.7488236 3.1400394"
   version="1.1"
   id="svg1"
   xmlns="http://www.w3.org/2000/svg"
   xmlns:svg="http://www.w3.org/2000/svg">
  <defs
     id="defs1">
    <clipPath
       clipPathUnits="userSpaceOnUse"
       id="clipPath6783">
      <path
         d="M 0,1440 H 251.455 V 0 H 0 Z"
         transform="translate(-64.147001,-445.74219)"
         id="path6783" />
    </clipPath>
  </defs>
  <g
     id="layer1"
     transform="translate(-85.596342,-50.937654)">
    <path
       id="path6782"
       d="M 0,0 C -0.001,0.044 -0.186,0.21 -0.322,-0.163 -0.519,-0.58 -0.145,-0.885 0,-0.56 0.049,-0.451 0.004,-0.273 0,0 M 0.334,-0.024 C 0.268,-0.68 0.712,-1.54 -0.005,-2.056 c -0.179,-0.13 -0.447,-0.117 -0.669,0.111 -0.303,0.31 0.082,0.753 0.244,0.318 0.01,-0.021 0.013,-0.03 0.06,-0.072 0.062,-0.048 0.081,-0.063 0.174,-0.032 0.055,0.031 0.134,0.113 0.174,0.163 0.044,0.07 0.062,0.115 0.083,0.226 0.011,0.146 -0.013,0.483 -0.023,0.474 -0.188,-0.198 -0.48,-0.127 -0.611,0.107 -0.179,0.32 -0.038,0.972 0.296,1.129 C -0.116,0.444 0.105,0.375 0.18,0.243 0.289,0.198 0.351,0.149 0.334,-0.024 M 3.245,-0.726 C 3.22,-0.885 3.048,-0.923 2.969,-0.814 2.865,-0.675 3.159,0.298 2.792,0.167 2.755,0.154 2.698,0.09 2.69,0.075 2.61,-0.073 2.612,-0.081 2.592,-0.268 2.591,-0.27 2.536,-0.763 2.515,-0.825 2.466,-0.964 2.278,-0.982 2.204,-0.863 2.102,-0.694 2.148,-0.447 2.007,0.261 1.974,0.426 2.156,0.578 2.302,0.46 2.431,0.357 2.377,0.027 2.441,0.166 2.682,0.694 3.056,0.566 3.165,0.41 3.452,-0.005 3.256,-0.66 3.245,-0.726 M 1.302,-0.023 C 1.205,0.541 0.685,-0.14 0.99,-0.542 1.092,-0.639 1.401,-0.583 1.302,-0.023 M 1.741,-0.486 C 1.81,-0.694 1.902,-0.83 1.771,-0.947 1.654,-1.051 1.522,-0.897 1.443,-0.708 1.246,-0.991 0.808,-1.017 0.679,-0.611 0.404,0.255 0.969,0.66 1.354,0.443 1.538,0.339 1.481,0.332 1.56,0.304 1.717,0.248 1.576,0.01 1.741,-0.486 m -3.29,0.531 c 0.008,-0.03 0.406,-0.107 0.436,-0.043 0.069,0.154 0.006,0.249 -0.083,0.26 C -1.3,0.275 -1.57,0.131 -1.549,0.045 m -0.127,-0.299 c -0.162,-0.193 -0.003,-0.409 0.188,-0.471 0.28,-0.092 0.367,0.009 0.463,-0.002 0.146,-0.018 0.103,-0.297 -0.254,-0.339 -0.723,-0.084 -1.13,0.816 -0.46,1.387 0.139,0.119 0.299,0.232 0.467,0.222 0.514,-0.032 0.477,-0.477 0.464,-0.568 -0.066,-0.474 -0.814,-0.164 -0.868,-0.229 m -0.12,1.657 c -0.14,-0.25 -0.396,-1.032 -0.499,-1.319 -0.087,-0.245 -0.152,-0.355 -0.209,-0.51 -0.517,-1.442 -0.805,0.38 -1.277,1.793 -0.054,0.162 -0.095,0.35 0.059,0.404 0.062,0.022 0.207,0.018 0.23,-0.047 0.44,-1.283 0.103,-0.413 0.618,-2.095 0.027,0.081 0.04,0.121 0.108,0.291 0.205,0.512 0.627,2.29 0.994,1.924 0.131,-0.13 0.044,-0.318 -0.024,-0.441 M 2.323,4.151 C 0.202,3.893 0.442,2.589 -0.046,3.077 -0.325,3.355 -0.459,3.522 -0.562,3.614 -1.559,4.512 -3.635,4.559 -4.632,3.131 -5.385,2.044 -5.571,0.523 -4.974,-0.776 c 0.744,-1.614 2.109,-2.175 3.31,-2.768 1.29,-0.635 1.673,-1.043 2.022,-0.938 0.316,0.096 3.087,2.086 3.645,2.691 2.111,2.245 1.157,6.29 -1.68,5.942"
       style="fill:#00bdbd;fill-opacity:1;fill-rule:nonzero;stroke:#182c25;stroke-width:0.150236;stroke-dasharray:none;stroke-opacity:1"
       transform="matrix(0.35277776,0,0,-0.35277776,87.502715,52.464352)"
       clip-path="url(#clipPath6783)" />
  </g>
  <path
     style="fill:#ffffff;stroke-width:0.00382543"
     d="M 0.86987169,1.8514159 C 0.86130999,1.8462833 0.84732525,1.8320977 0.83879445,1.8198923 0.79344794,1.7550127 0.75867825,1.6599203 0.67122412,1.361601 0.64470183,1.2711294 0.60915422,1.1532104 0.5922294,1.0995587 0.56797137,1.0226606 0.5610468,0.99553148 0.55951915,0.97140659 c -0.001752,-0.0276633 -0.001066,-0.0318898 0.007137,-0.0439925 0.004991,-0.007364 0.0150654,-0.0163989 0.0223875,-0.0200776 0.0174188,-0.008752 0.0513784,-0.008752 0.068407,0 0.0121581,0.006248 0.0143576,0.0105905 0.0334249,0.0659828 0.0393298,0.11425661 0.0633283,0.19400911 0.0874851,0.29073301 0.0133996,0.053652 0.0322931,0.1250917 0.0419856,0.1587556 0.0328896,0.114231 0.0679082,0.2295142 0.0706235,0.2324963 0.003417,0.00375 0.0532308,-0.1292035 0.0842419,-0.2248454 C 1.0645196,1.1550225 1.0945829,1.0717551 1.1340444,0.99053377 1.1771329,0.901847 1.2115192,0.8623817 1.2457039,0.8623817 c 0.014669,0 0.018812,0.002072 0.033473,0.0167312 0.01298,0.0129802 0.017771,0.0213757 0.021367,0.0374469 0.00636,0.0284257 -0.00118,0.0562607 -0.032497,0.1198792 -0.035794,0.072723 -0.057276,0.1286953 -0.1415225,0.3687406 -0.024657,0.070256 -0.053484,0.147721 -0.06406,0.1721446 -0.010576,0.024423 -0.031885,0.076017 -0.047353,0.1146528 C 0.9746816,1.7929601 0.945801,1.840704 0.9168291,1.8544521 0.8986156,1.8630921 0.888234,1.8624221 0.8698717,1.8514121 Z"
     id="path1" />
  <path
     style="fill:#ffffff;stroke-width:0.00382543"
     d="M 1.3712686,1.8972389 C 1.2828436,1.8777729 1.2154547,1.816203 1.186957,1.7288427 1.174257,1.6899097 1.172439,1.6247475 1.182957,1.5853889 1.197512,1.5309179 1.235244,1.4699413 1.280077,1.4284424 c 0.05831,-0.053974 0.1151384,-0.086375 0.158233,-0.090216 0.029948,-0.00267 0.073305,0.0057 0.1018149,0.019644 0.053903,0.026372 0.085783,0.090083 0.08056,0.160998 -0.00697,0.094598 -0.071537,0.1236984 -0.2239374,0.1009247 -0.080255,-0.011993 -0.0824,-0.011576 -0.098527,0.019152 -0.010085,0.019215 -0.00954,0.058305 0.0011,0.078516 0.00899,0.017086 0.039811,0.047608 0.057001,0.056453 0.043342,0.022303 0.1041669,0.028578 0.1558788,0.016083 0.026956,-0.00651 0.031025,-0.00667 0.040167,-0.00155 0.033013,0.018503 0.015884,0.065988 -0.033497,0.092865 -0.036811,0.020035 -0.098627,0.026704 -0.1476004,0.015923 z M 1.5084749,1.5334117 c 0.0091,-0.00349 0.018931,-0.037951 0.016638,-0.0583 -0.00159,-0.014119 -0.00481,-0.020201 -0.016227,-0.030664 -0.013578,-0.012443 -0.015279,-0.012958 -0.036473,-0.011036 -0.042916,0.00389 -0.1145322,0.048402 -0.1145322,0.071183 0,0.010702 0.015651,0.017646 0.056356,0.025005 0.030835,0.00557 0.084038,0.00773 0.094239,0.00381 z"
     id="path2" />
  <path
     style="fill:#ffffff;stroke-width:0.00382543"
     d="m 1.7626018,2.2706228 c -0.030347,-0.010004 -0.054708,-0.025023 -0.081007,-0.049944 -0.028305,-0.026821 -0.03926,-0.044021 -0.046811,-0.073495 -0.011228,-0.043827 0.00545,-0.088431 0.038535,-0.1030664 0.028963,-0.012812 0.051437,8.361e-4 0.073323,0.044528 0.023752,0.047416 0.05532,0.064811 0.090752,0.050006 0.01839,-0.00768 0.061461,-0.052535 0.072892,-0.075905 0.00544,-0.01112 0.012818,-0.033715 0.016397,-0.050211 0.00584,-0.026935 0.00604,-0.037632 0.0019,-0.1049177 -0.00253,-0.041209 -0.0054,-0.075711 -0.00636,-0.076672 -9.605e-4,-9.605e-4 -0.00808,0.00382 -0.015827,0.010615 -0.022682,0.019914 -0.04524,0.028114 -0.077988,0.028348 -0.023119,1.648e-4 -0.032865,-0.00173 -0.05019,-0.00974 -0.060289,-0.027889 -0.093556,-0.086278 -0.097952,-0.1719235 -0.00734,-0.1430367 0.064794,-0.2779739 0.1594559,-0.2982752 0.039441,-0.00846 0.088045,0.00805 0.1180048,0.040093 0.00906,0.00969 0.018646,0.017611 0.021308,0.017611 0.00266,0 0.011995,0.00613 0.020742,0.013612 0.021514,0.018415 0.024518,0.031621 0.021449,0.094299 -0.00258,0.052707 6.721e-4,0.1024383 0.013834,0.2115129 0.018073,0.1497693 0.018012,0.2241845 -2.445e-4,0.2945685 -0.022027,0.084922 -0.085515,0.1669122 -0.1562876,0.2018333 -0.021124,0.010423 -0.029244,0.01223 -0.059294,0.013196 -0.026162,8.408e-4 -0.040242,-6.689e-4 -0.056632,-0.00607 z M 1.8770146,1.7653283 c 0.015125,-0.00922 0.034519,-0.042279 0.037855,-0.064524 0.00137,-0.00913 2.91e-4,-0.053033 -0.00239,-0.097566 -0.00525,-0.087084 -0.00588,-0.089337 -0.028097,-0.1008262 -0.028258,-0.014612 -0.059992,0.0088 -0.085399,0.063003 -0.029659,0.063276 -0.035077,0.1146176 -0.016522,0.1565638 0.019804,0.04477 0.061144,0.063723 0.094558,0.043349 z"
     id="path3" />
  <path
     style="fill:#ffffff;stroke-width:0.00382543"
     d="m 2.4878753,1.8667872 c -0.017632,-0.00763 -0.041464,-0.034362 -0.057018,-0.063961 -0.00756,-0.014391 -0.014448,-0.026166 -0.015301,-0.026166 -8.52e-4,0 -0.00922,0.00818 -0.01859,0.018171 -0.021618,0.023054 -0.051508,0.041068 -0.080663,0.048612 -0.030234,0.00782 -0.045996,0.00744 -0.076047,-0.00184 C 2.1934989,1.8271626 2.1600905,1.7862604 2.1420653,1.721388 2.1085406,1.6007328 2.119296,1.4953972 2.1723596,1.424694 c 0.0206,-0.027448 0.042269,-0.044703 0.07579,-0.06035 0.019135,-0.00893 0.027006,-0.01032 0.058726,-0.010354 0.035366,-3.81e-5 0.037749,5.159e-4 0.069063,0.016032 0.017838,0.00884 0.040151,0.022865 0.049584,0.031168 0.00943,0.0083 0.023604,0.017793 0.031492,0.021089 0.020793,0.00869 0.02506,0.022377 0.029656,0.09514 0.00577,0.091289 0.015759,0.136886 0.052834,0.2410637 0.014574,0.040952 0.015539,0.06527 0.0033,0.083249 -0.01649,0.024228 -0.036134,0.033188 -0.054933,0.025055 z M 2.3314048,1.7198139 c 0.030141,-0.020539 0.047134,-0.075445 0.042198,-0.1363377 -0.00506,-0.062399 -0.018535,-0.1052539 -0.037212,-0.1183357 -0.0047,-0.0033 -0.015517,-0.00599 -0.024029,-0.00599 -0.052752,0 -0.1000451,0.095721 -0.089473,0.181091 0.00361,0.029181 0.01872,0.066511 0.031941,0.078931 0.019011,0.01786 0.050916,0.018127 0.076575,6.43e-4 z"
     id="path4" />
  <path
     style="fill:#ffffff;stroke-width:0.00382543"
     d="m 2.7159091,1.8542346 c -0.022518,-0.00846 -0.040918,-0.036859 -0.049025,-0.075661 -0.0022,-0.01052 -0.00853,-0.05786 -0.014071,-0.1051995 -0.00554,-0.04734 -0.015988,-0.1213619 -0.023214,-0.1644937 -0.00723,-0.043132 -0.013142,-0.084071 -0.013146,-0.090977 -8.9e-6,-0.018399 0.00846,-0.035656 0.02436,-0.049612 0.016385,-0.014386 0.028075,-0.018056 0.047479,-0.014908 0.036072,0.00585 0.05345,0.036004 0.063849,0.1107771 0.00161,0.01154 0.00424,0.017859 0.00707,0.01695 0.00249,-7.99e-4 0.011737,-0.014825 0.020569,-0.031172 0.043216,-0.080005 0.093409,-0.1166814 0.1537327,-0.1123333 0.059424,0.00428 0.099254,0.043955 0.1241081,0.1236148 0.024572,0.078754 0.023466,0.178965 -0.00329,0.2975669 -0.010385,0.046038 -0.017963,0.05969 -0.03856,0.069464 -0.019952,0.00947 -0.038533,0.00561 -0.054083,-0.011234 -0.012377,-0.013405 -0.012433,-0.013646 -0.012433,-0.053497 0,-0.022018 0.00275,-0.070674 0.0061,-0.1081248 0.00625,-0.069752 0.00541,-0.1329851 -0.00212,-0.1584747 -0.00225,-0.00763 -0.00879,-0.018568 -0.014526,-0.024307 -0.00928,-0.00928 -0.012637,-0.01025 -0.030278,-0.00879 -0.032821,0.00272 -0.055321,0.025697 -0.074438,0.076009 -0.00468,0.012302 -0.012936,0.06321 -0.022503,0.1386525 -0.016198,0.1277443 -0.018942,0.1418165 -0.030522,0.1565397 -0.013697,0.017415 -0.045148,0.026697 -0.065079,0.019208 z"
     id="path5" />
</svg>
