<?xml version="1.0" encoding="UTF-8" standalone="no"?>
<!-- Created with Inkscape (http://www.inkscape.org/) -->

<svg
   width="3.6955914mm"
   height="3.087126mm"
   viewBox="0 0 3.6955914 3.087126"
   version="1.1"
   id="svg1"
   xmlns="http://www.w3.org/2000/svg"
   xmlns:svg="http://www.w3.org/2000/svg">
  <defs
     id="defs1">
    <clipPath
       clipPathUnits="userSpaceOnUse"
       id="clipPath6783">
      <path
         d="M 0,1440 H 251.455 V 0 H 0 Z"
         transform="translate(-64.147001,-445.74219)"
         id="path6783" />
    </clipPath>
  </defs>
  <g
     id="layer1"
     transform="translate(-85.62297,-50.964178)">
    <path
       id="path6782"
       d="M 0,0 C -0.001,0.044 -0.186,0.21 -0.322,-0.163 -0.519,-0.58 -0.145,-0.885 0,-0.56 0.049,-0.451 0.004,-0.273 0,0 M 0.334,-0.024 C 0.268,-0.68 0.712,-1.54 -0.005,-2.056 c -0.179,-0.13 -0.447,-0.117 -0.669,0.111 -0.303,0.31 0.082,0.753 0.244,0.318 0.01,-0.021 0.013,-0.03 0.06,-0.072 0.062,-0.048 0.081,-0.063 0.174,-0.032 0.055,0.031 0.134,0.113 0.174,0.163 0.044,0.07 0.062,0.115 0.083,0.226 0.011,0.146 -0.013,0.483 -0.023,0.474 -0.188,-0.198 -0.48,-0.127 -0.611,0.107 -0.179,0.32 -0.038,0.972 0.296,1.129 C -0.116,0.444 0.105,0.375 0.18,0.243 0.289,0.198 0.351,0.149 0.334,-0.024 M 3.245,-0.726 C 3.22,-0.885 3.048,-0.923 2.969,-0.814 2.865,-0.675 3.159,0.298 2.792,0.167 2.755,0.154 2.698,0.09 2.69,0.075 2.61,-0.073 2.612,-0.081 2.592,-0.268 2.591,-0.27 2.536,-0.763 2.515,-0.825 2.466,-0.964 2.278,-0.982 2.204,-0.863 2.102,-0.694 2.148,-0.447 2.007,0.261 1.974,0.426 2.156,0.578 2.302,0.46 2.431,0.357 2.377,0.027 2.441,0.166 2.682,0.694 3.056,0.566 3.165,0.41 3.452,-0.005 3.256,-0.66 3.245,-0.726 M 1.302,-0.023 C 1.205,0.541 0.685,-0.14 0.99,-0.542 1.092,-0.639 1.401,-0.583 1.302,-0.023 M 1.741,-0.486 C 1.81,-0.694 1.902,-0.83 1.771,-0.947 1.654,-1.051 1.522,-0.897 1.443,-0.708 1.246,-0.991 0.808,-1.017 0.679,-0.611 0.404,0.255 0.969,0.66 1.354,0.443 1.538,0.339 1.481,0.332 1.56,0.304 1.717,0.248 1.576,0.01 1.741,-0.486 m -3.29,0.531 c 0.008,-0.03 0.406,-0.107 0.436,-0.043 0.069,0.154 0.006,0.249 -0.083,0.26 C -1.3,0.275 -1.57,0.131 -1.549,0.045 m -0.127,-0.299 c -0.162,-0.193 -0.003,-0.409 0.188,-0.471 0.28,-0.092 0.367,0.009 0.463,-0.002 0.146,-0.018 0.103,-0.297 -0.254,-0.339 -0.723,-0.084 -1.13,0.816 -0.46,1.387 0.139,0.119 0.299,0.232 0.467,0.222 0.514,-0.032 0.477,-0.477 0.464,-0.568 -0.066,-0.474 -0.814,-0.164 -0.868,-0.229 m -0.12,1.657 c -0.14,-0.25 -0.396,-1.032 -0.499,-1.319 -0.087,-0.245 -0.152,-0.355 -0.209,-0.51 -0.517,-1.442 -0.805,0.38 -1.277,1.793 -0.054,0.162 -0.095,0.35 0.059,0.404 0.062,0.022 0.207,0.018 0.23,-0.047 0.44,-1.283 0.103,-0.413 0.618,-2.095 0.027,0.081 0.04,0.121 0.108,0.291 0.205,0.512 0.627,2.29 0.994,1.924 0.131,-0.13 0.044,-0.318 -0.024,-0.441 M 2.323,4.151 C 0.202,3.893 0.442,2.589 -0.046,3.077 -0.325,3.355 -0.459,3.522 -0.562,3.614 -1.559,4.512 -3.635,4.559 -4.632,3.131 -5.385,2.044 -5.571,0.523 -4.974,-0.776 c 0.744,-1.614 2.109,-2.175 3.31,-2.768 1.29,-0.635 1.673,-1.043 2.022,-0.938 0.316,0.096 3.087,2.086 3.645,2.691 2.111,2.245 1.157,6.29 -1.68,5.942"
       style="fill:#00657c;fill-opacity:1;fill-rule:nonzero;stroke:none"
       transform="matrix(0.35277776,0,0,-0.35277776,87.502715,52.464352)"
       clip-path="url(#clipPath6783)" />
  </g>
</svg>
